

    <svg width="24" height="24" viewBox="0 0 24 24" fill="none" xmlns="http://www.w3.org/2000/svg">
        <g id="vuesax/outline/bag-2">
            <g id="bag-2">
                <path id="Vector" d="M16.5 8.62932C16.09 8.62932 15.75 8.28932 15.75 7.87932V6.49932C15.75 5.44932 15.3 4.42932 14.52 3.71932C13.73 2.99932 12.71 2.66932 11.63 2.76932C9.83 2.93932 8.25 4.77932 8.25 6.69932V7.66932C8.25 8.07932 7.91 8.41932 7.5 8.41932C7.09 8.41932 6.75 8.07932 6.75 7.66932V6.68932C6.75 3.99932 8.92 1.51932 11.49 1.26932C12.99 1.12932 14.43 1.59932 15.53 2.60932C16.62 3.59932 17.25 5.01932 17.25 6.49932V7.87932C17.25 8.28932 16.91 8.62932 16.5 8.62932Z" fill="#16476D" />
                <path id="Vector_2" d="M15.0037 22.7495H9.00372C4.38372 22.7495 3.52372 20.5995 3.30372 18.5095L2.55372 12.5195C2.44372 11.4395 2.40372 9.88951 3.45372 8.72951C4.35372 7.72951 5.84372 7.24951 8.00372 7.24951H16.0037C18.1737 7.24951 19.6637 7.73951 20.5537 8.72951C21.5937 9.88951 21.5637 11.4395 21.4537 12.4995L20.7037 18.5095C20.4837 20.5995 19.6237 22.7495 15.0037 22.7495ZM8.00372 8.74951C6.31372 8.74951 5.15372 9.07951 4.56372 9.73951C4.07372 10.2795 3.91372 11.1095 4.04372 12.3495L4.79372 18.3395C4.96372 19.9395 5.40372 21.2595 9.00372 21.2595H15.0037C18.6037 21.2595 19.0437 19.9495 19.2137 18.3595L19.9637 12.3495C20.0937 11.1295 19.9337 10.2995 19.4437 9.74951C18.8537 9.07951 17.6937 8.74951 16.0037 8.74951H8.00372Z" fill="#16476D" />
                <path id="Vector_3" d="M15.4163 13.1504C14.8563 13.1504 14.4062 12.7004 14.4062 12.1504C14.4062 11.6004 14.8563 11.1504 15.4063 11.1504C15.9563 11.1504 16.4063 11.6004 16.4063 12.1504C16.4063 12.7004 15.9663 13.1504 15.4163 13.1504Z" fill="#16476D" />
                <path id="Vector_4" d="M8.41625 13.1504C7.85625 13.1504 7.40625 12.7004 7.40625 12.1504C7.40625 11.6004 7.85625 11.1504 8.40625 11.1504C8.95625 11.1504 9.40625 11.6004 9.40625 12.1504C9.40625 12.7004 8.96625 13.1504 8.41625 13.1504Z" fill="#16476D" />
            </g>
        </g>
    </svg>