    <svg width="50" height="51" viewBox="0 0 50 51" fill="none" xmlns="http://www.w3.org/2000/svg">
        <g id="Black">
            <path id="Vector" d="M3.27725 3.61563V6.89718H2.45794H1.63863V5.6666V4.43602H0.819313H0V6.48698V8.53795H3.41039H6.82078L7.60937 9.92235C8.03951 10.6812 8.39796 11.358 8.39796 11.4196C8.39796 11.4811 8.2341 11.8092 8.03951 12.1374C6.88223 14.0345 5.97075 16.8546 5.7864 19.0492C5.75568 19.4388 5.70447 20.0131 5.68399 20.3002L5.63278 20.8438H9.77031H13.9078L13.9693 20.6079C14 20.4848 14.0307 20.2182 14.0307 20.0131C14.0307 19.3773 14.5018 17.7365 14.932 16.8854C15.6182 15.5215 16.7242 14.2294 17.8405 13.4808C18.0556 13.3475 18.2297 13.1731 18.2297 13.1014C18.2297 12.9783 14.594 5.99475 14.4506 5.84093C14.2458 5.63583 11.1734 8.05597 10.18 9.19426C9.91369 9.51216 9.65765 9.76853 9.62693 9.76853C9.59621 9.76853 9.25824 9.22502 8.87931 8.55846L8.19313 7.34839V5.07182V2.79524H7.37382H6.55451V4.84621V6.89718H5.73519H4.91588V3.61563V0.334082H4.09657H3.27725V3.61563ZM15.0651 10.753L16.0278 12.6194L15.3314 13.3167C13.9795 14.6703 13.0168 16.4137 12.556 18.3006L12.3409 19.203H9.92393H7.50696L7.6401 18.3518C7.8142 17.2956 8.21362 15.9112 8.63351 14.9062L8.96124 14.1268L9.01245 14.7934C9.10462 16.0445 9.842 16.7418 11.0607 16.7418C12.3204 16.7418 13.109 15.9522 13.109 14.6806C13.109 14.1166 13.0578 13.932 12.812 13.5423C12.515 13.0706 11.8391 12.6399 11.4089 12.6399C11.2758 12.6399 11.1017 12.4553 10.8866 12.0759L10.5589 11.5119L11.0505 10.9171C11.583 10.2915 12.8325 9.06095 13.406 8.59948L13.7542 8.3226L13.9283 8.60973C14.0205 8.76356 14.5326 9.73777 15.0651 10.753ZM11.3168 14.6908C11.3168 14.8754 11.2553 14.9575 11.0812 14.978C10.8354 15.019 10.692 14.7934 10.7945 14.5268C10.8252 14.4345 10.9481 14.3832 11.0812 14.4037C11.2553 14.4242 11.3168 14.5063 11.3168 14.6908Z" fill="#F49100" />
            <path id="Vector_2" d="M20.2333 3.7685C19.7314 3.85054 18.9736 4.01461 18.5434 4.12741C17.4578 4.41455 15.768 5.06061 15.768 5.17341C15.768 5.27596 19.5164 12.2287 19.6495 12.3518C19.6905 12.4031 20.1821 12.321 20.7351 12.1775C26.3167 10.752 31.847 14.9975 31.847 20.7095V21.7555L31.5193 21.8068C31.335 21.8375 30.9048 21.8888 30.5669 21.9196C29.6758 22.0016 28.4674 22.34 27.4535 22.781C24.8317 23.909 22.5171 26.2881 21.452 28.9544L21.1857 29.6414L20.602 29.4876C19.6905 29.262 18.0416 28.4006 17.2837 27.7751C15.9011 26.6265 14.8156 24.9755 14.3137 23.2424L14.0987 22.4836H9.90992H5.71094L5.78263 22.9143C6.32542 26.3702 7.37005 28.9031 9.27495 31.3848C9.6334 31.8462 9.9304 32.2462 9.9304 32.2667C9.9304 32.2974 9.17254 32.9435 8.24057 33.7229L6.55073 35.1278V37.8351V40.5321H7.37005H8.18936V38.2965V36.0712L9.42857 35.0457C10.1045 34.4817 10.8009 33.9177 10.9545 33.7844L11.2413 33.5588L11.7943 34.0305C12.6341 34.7586 14.3547 35.8764 15.4096 36.3789C17.0584 37.1685 19.1067 37.7633 21.114 38.0196C21.5954 38.0812 21.5954 38.0812 22.0358 38.9016C23.4798 41.6088 26.1323 43.6598 29.2764 44.5007C30.147 44.7366 30.4644 44.7673 32.0519 44.7776C33.5676 44.7776 33.9772 44.7468 34.7453 44.552C35.6466 44.3264 37.193 43.7316 37.6232 43.4547C37.8485 43.3111 37.9714 43.4034 41.4432 46.6645C43.4096 48.5206 45.1814 50.0998 45.3759 50.1819C45.9699 50.428 46.9634 50.3665 47.6291 50.0486C48.3562 49.6896 49.3803 48.6231 49.7285 47.8745C50.0767 47.1054 50.087 46.1312 49.749 45.4954C49.5852 45.1878 48.4176 44.0187 46.0007 41.7524C43.3072 39.2297 42.4981 38.4196 42.5596 38.2863C42.8873 37.5377 43.3379 35.9994 43.4813 35.1996C43.8192 33.2614 43.5427 30.79 42.7849 28.9646C42.1806 27.5084 41.0233 25.7754 40.1016 24.9652L39.7739 24.6781L39.948 23.6014C40.2143 22.0734 40.204 19.4994 39.9377 17.9099C39.3437 14.454 37.6334 11.152 35.1243 8.63955L34.5405 8.05502L35.5339 6.68087L36.5171 5.30672L42.8361 5.27596L49.155 5.25545V4.43506V3.61467H42.3547H35.5442L34.3971 5.22468C33.7622 6.11686 33.2296 6.86546 33.2194 6.87571C33.2091 6.89622 32.738 6.6296 32.185 6.28093C30.3927 5.1529 28.4366 4.35302 26.4396 3.91206C25.1184 3.62493 21.6056 3.54289 20.2333 3.7685ZM24.3298 5.39902C25.9582 5.50156 27.7402 5.98354 29.471 6.80393C30.6283 7.34743 32.1748 8.32165 32.0928 8.45496C32.0621 8.49598 31.7856 8.537 31.4681 8.537C30.2903 8.537 29.4915 9.36764 29.4915 10.588C29.4915 11.8493 30.2801 12.6389 31.5398 12.6389C32.3693 12.6389 32.9531 12.321 33.3423 11.6545C33.5983 11.2238 33.6086 11.1315 33.5573 10.3521L33.5061 9.51121L34.1821 10.229C36.3635 12.5364 37.7154 15.2642 38.2479 18.4637C38.3913 19.2943 38.4118 19.9199 38.3811 21.335C38.3503 22.3298 38.2991 23.2322 38.2479 23.3245C38.1865 23.4783 38.125 23.468 37.6539 23.2014C36.6605 22.6476 35.4622 22.2477 33.8236 21.9093C33.5983 21.8683 33.5881 21.8273 33.5881 20.6787C33.5881 19.3148 33.4037 18.2996 32.9326 17.028C32.3796 15.5513 31.7344 14.5771 30.4644 13.3055C29.2047 12.0442 28.2216 11.3878 26.7468 10.8341C25.2516 10.2803 24.3708 10.147 22.5376 10.2085C21.6568 10.2393 20.8477 10.2906 20.7351 10.3213C20.561 10.3726 20.3869 10.106 19.4037 8.28062C18.7892 7.12183 18.2874 6.13736 18.2976 6.09634C18.3591 5.79895 22.005 5.21443 23.193 5.32723C23.3671 5.33749 23.869 5.36825 24.3298 5.39902ZM31.7958 10.588C31.7958 10.7726 31.7344 10.8546 31.5603 10.8751C31.4271 10.8956 31.3042 10.8443 31.2735 10.752C31.1711 10.4854 31.3145 10.2598 31.5603 10.3008C31.7344 10.3213 31.7958 10.4034 31.7958 10.588ZM34.2435 23.7757C37.3774 24.4833 40.1733 26.9137 41.2589 29.8876C41.7402 31.1899 41.8222 31.7129 41.8222 33.3537C41.8222 35.2508 41.6481 36.02 40.8595 37.6095C39.6203 40.1321 37.2852 42.0601 34.561 42.7984C33.4549 43.106 30.9151 43.1368 29.9012 42.8599C27.8426 42.2959 26.4293 41.4653 25.057 40.0296C20.52 35.2714 21.8924 27.5495 27.8017 24.555C28.58 24.1654 29.9626 23.7347 30.8229 23.6116C31.6934 23.4885 33.3116 23.5706 34.2435 23.7757ZM12.8492 24.4012C12.9721 24.914 13.689 26.3189 14.1601 26.9957C15.5632 28.9749 17.8573 30.5951 20.0899 31.1694C20.7453 31.3437 20.7761 31.354 20.7044 31.6104C20.5712 32.0821 20.6429 34.8099 20.8068 35.5277C20.9911 36.3481 21.0833 36.3071 19.6802 36.0097C17.9187 35.62 16.1265 34.8817 14.5902 33.8869C13.6992 33.3127 12.5624 32.4205 12.6341 32.3487C12.6649 32.318 13.0233 32.3077 13.4227 32.318C14.0372 32.3385 14.2113 32.2974 14.5902 32.0718C15.2457 31.6924 15.5632 31.0976 15.5632 30.2772C15.5632 29.0159 14.7746 28.2263 13.5149 28.2263C12.6853 28.2263 12.1016 28.5442 11.7226 29.2005C11.4973 29.5799 11.4564 29.7542 11.4769 30.349C11.4871 30.7387 11.4564 31.0464 11.3949 31.0669C11.1696 31.1489 9.77678 29.139 9.07012 27.7238C8.63998 26.8829 8.0255 25.2011 7.84115 24.4012L7.7797 24.1243H10.2786H12.7775L12.8492 24.4012ZM13.7709 30.2772C13.7709 30.4618 13.7095 30.5439 13.5354 30.5644C13.2896 30.6054 13.1462 30.3798 13.2486 30.1132C13.2793 30.0209 13.4022 29.9696 13.5354 29.9901C13.7095 30.0106 13.7709 30.0927 13.7709 30.2772ZM45.1404 43.3932C46.8302 44.9827 48.2333 46.3671 48.264 46.4696C48.4484 47.1772 46.9326 48.7667 46.2465 48.5924C46.0826 48.5514 41.433 44.2956 39.7432 42.6343L39.395 42.2959L40.0811 41.6601C40.4498 41.3114 40.9209 40.7987 41.1258 40.5218L41.4944 40.0193L41.7914 40.2655C41.9451 40.3988 43.4608 41.8037 45.1404 43.3932Z" fill="#F49100" />
            <path id="Vector_3" d="M30.702 24.9481C29.8315 25.1019 29.0429 25.3685 28.111 25.8505C27.3531 26.2402 27.0049 26.5068 26.1548 27.3477C25.315 28.1989 25.0488 28.5475 24.6596 29.3064C24.0349 30.5165 23.7584 31.5214 23.6867 32.8135C23.4614 36.8027 25.8271 40.238 29.6472 41.4584C30.6099 41.766 32.7913 41.8583 33.8564 41.6327C36.9083 40.9867 39.2843 38.8024 40.247 35.7669C40.5645 34.762 40.6465 32.7007 40.4109 31.5625C39.7247 28.2501 37.062 25.6352 33.713 24.9891C32.9039 24.8353 31.4906 24.8148 30.702 24.9481ZM33.5389 26.7427C35.4131 27.1324 37.2463 28.568 38.0759 30.2806C38.6391 31.4189 38.8132 32.1675 38.8132 33.3365C38.8132 34.9671 38.2909 36.4232 37.2565 37.6436C35.9252 39.2126 34.1944 40.0227 32.1358 40.033C30.1592 40.033 28.5718 39.3356 27.1687 37.8384C25.1819 35.7054 24.8439 32.4341 26.3392 29.8909C26.7693 29.1526 27.9573 27.963 28.6845 27.5323C30.1388 26.6812 31.8696 26.394 33.5389 26.7427Z" fill="#F49100" />
            <path id="Vector_4" d="M39.3281 7.71672V8.53711H41.3764H43.4247V7.71672V6.89634H41.3764H39.3281V7.71672Z" fill="#F49100" />
            <path id="Vector_5" d="M45.0625 7.71672V8.53711H47.1108H49.1591V7.71672V6.89634H47.1108H45.0625V7.71672Z" fill="#F49100" />
            <path id="Vector_6" d="M39.3281 11.0009V11.8213H44.244H49.1599V11.0009V10.1805H44.244H39.3281V11.0009Z" fill="#F49100" />
            <path id="Vector_7" d="M0 42.9941V43.8145H3.27725H6.55451V42.9941V42.1737H3.27725H0V42.9941Z" fill="#F49100" />
            <path id="Vector_8" d="M8.1875 42.9941V43.8145H12.6937H17.1999V42.9941V42.1737H12.6937H8.1875V42.9941Z" fill="#F49100" />
            <path id="Vector_9" d="M0 46.2724V47.0928H8.60279H17.2056V46.2724V45.452H8.60279H0V46.2724Z" fill="#F49100" />
        </g>
    </svg>