
<svg width="23" height="24" viewBox="0 0 23 24" fill="none" xmlns="http://www.w3.org/2000/svg">
<g id="vuesax/outline/call">
    <g id="call">
        <path id="Vector" d="M12.7652 14.9185L12.6881 15.2461L13.639 15.5399C13.4777 15.5841 13.3032 15.5813 13.1548 15.5302L12.9332 15.4316C12.5883 15.2443 12.1665 14.9471 11.6841 14.5376C11.2371 14.1558 10.7495 13.706 10.154 13.1201C9.69364 12.6502 9.23308 12.152 8.75332 11.597C8.32634 11.0972 8.03256 10.6888 7.85568 10.3674L7.76537 10.1416C7.72081 9.96595 7.71438 9.89575 7.71438 9.83042C7.71438 9.62422 7.78507 9.45593 7.92065 9.32034L7.92073 9.32041L7.92805 9.3128L8.64327 8.56897C8.85512 8.35662 9.02786 8.14183 9.15148 7.93278C9.26806 7.74182 9.33396 7.54139 9.33396 7.32917C9.33396 7.15061 9.27611 6.95985 9.21583 6.81517L9.2159 6.81514L9.2121 6.80643C9.12412 6.60535 8.99555 6.39886 8.84873 6.19914L6.62833 3.05996L6.62833 3.05996L6.62688 3.05793C6.47845 2.85012 6.29162 2.69301 6.06161 2.58568L6.06167 2.58553L6.04971 2.5803C5.83801 2.48768 5.60173 2.42969 5.35448 2.42969C4.65288 2.42969 4.03711 2.74115 3.49638 3.26923C3.00466 3.73 2.65168 4.24408 2.42904 4.81066C2.20031 5.37801 2.09375 5.97351 2.09375 6.60083C2.09375 7.57616 2.32412 8.61552 2.76885 9.66671L2.76911 9.66732C3.21832 10.7254 3.84347 11.815 4.63102 12.8979C5.4141 13.9746 6.30395 15.0208 7.281 16.0076L7.28098 16.0076L7.28481 16.0114C8.26188 16.9787 9.31723 17.8778 10.4029 18.6701C11.4667 19.4482 12.5665 20.0835 13.6643 20.5428C15.3738 21.2723 17.0676 21.4834 18.5174 20.8797C19.0849 20.6459 19.5811 20.2905 20.0237 19.7947C20.2809 19.5145 20.4825 19.211 20.6478 18.8589C20.7954 18.5506 20.8723 18.2228 20.8723 17.89C20.8723 17.6613 20.8277 17.4334 20.7204 17.1919L20.7154 17.1807L20.71 17.1697C20.6492 17.0483 20.5373 16.8666 20.2682 16.6814L17.0901 14.4223L17.0901 14.4223L17.0869 14.42C16.8697 14.268 16.6625 14.1512 16.456 14.0661L16.4548 14.0657C16.4363 14.0581 16.4185 14.0502 16.3943 14.0396L16.3921 14.0386C16.3706 14.0291 16.3408 14.016 16.3099 14.0036C16.2437 13.9773 16.1464 13.9436 16.026 13.9338C15.7771 13.9137 15.5605 14.0041 15.3647 14.1224C15.107 14.2555 14.8931 14.4413 14.6921 14.6422C14.6916 14.6426 14.6912 14.643 14.6908 14.6434L13.9675 15.3572C13.9671 15.3576 13.9668 15.3579 13.9664 15.3583C13.9011 15.4216 13.8228 15.4709 13.738 15.506L13.9745 14.8927L13.9915 14.8487L14.4443 14.4021L14.4443 14.4021L14.4469 14.3995C14.7173 14.1291 14.9608 13.9471 15.1759 13.8359L15.1942 13.8264L15.2117 13.8156C15.5798 13.588 16.0664 13.5331 16.5889 13.7489C16.8021 13.8393 17.0361 13.9641 17.2913 14.1426C17.2918 14.143 17.2923 14.1433 17.2929 14.1437L20.4713 16.4031L20.4712 16.4032L20.4818 16.4104C20.7558 16.5955 20.9418 16.821 21.0512 17.078C21.1718 17.3851 21.2221 17.6517 21.2221 17.9092C21.2221 18.2865 21.1356 18.6689 20.966 19.0325C20.7876 19.4147 20.5689 19.7424 20.2904 20.0462L20.2881 20.0488C19.7892 20.6001 19.2607 20.9798 18.656 21.2233L18.6547 21.2238C18.0582 21.4659 17.4083 21.5964 16.7203 21.5964C15.7236 21.5964 14.6551 21.3582 13.5288 20.8821C12.422 20.4117 11.298 19.7626 10.1951 18.9683C9.09624 18.1605 8.0344 17.2585 7.02852 16.2717C6.03336 15.2669 5.13214 14.206 4.33432 13.1174C3.52998 11.9948 2.89069 10.8805 2.43966 9.81297C1.96444 8.67954 1.73437 7.60062 1.73437 6.60083C1.73437 5.91921 1.85645 5.27702 2.08996 4.68002C2.32749 4.07803 2.71155 3.51183 3.24044 3.01762L3.24582 3.01259L3.25107 3.00741C3.90143 2.3655 4.61308 2.07031 5.35448 2.07031C5.6498 2.07031 5.95466 2.13943 6.20786 2.25859L6.20786 2.2586L6.2115 2.26028C6.50219 2.39445 6.73838 2.59036 6.90887 2.8461L6.91321 2.85262L6.91775 2.85901L9.14108 5.99276L9.14106 5.99277L9.14412 5.997C9.32538 6.24731 9.45387 6.47585 9.539 6.69253L9.5424 6.7012L9.54611 6.70975C9.64707 6.94273 9.69333 7.15723 9.69333 7.34833C9.69333 7.60436 9.62013 7.86409 9.46349 8.12515L9.45887 8.13286L9.4545 8.14071C9.34224 8.34279 9.15717 8.58121 8.90247 8.83591L8.90238 8.83582L8.89434 8.84422L8.24267 9.52464L8.01775 9.75948L8.12058 10.068C8.14235 10.1333 8.16587 10.1803 8.17756 10.2036L8.17858 10.2057L8.18527 10.219L8.19269 10.232C8.32847 10.4696 8.57981 10.8421 9.03621 11.3779L9.03617 11.3779L9.04088 11.3833C9.5132 11.9231 9.96155 12.4204 10.4126 12.8812L10.4125 12.8813L10.4199 12.8886C10.9876 13.4467 11.4698 13.9 11.9283 14.2789C12.2654 14.5627 12.5412 14.7697 12.7652 14.9185Z" fill="white" stroke="white" stroke-width="1.07812" />
    </g>
</g>
</svg>

