<svg width="48" height="48" viewBox="0 0 48 48" fill="none" xmlns="http://www.w3.org/2000/svg">
<g id="Iconly/Bulk/Calling">
<g id="Group">
<g id="Calling">
<path id="Fill 1" opacity="0.4" d="M19.1635 10.98C20.1156 10.8041 20.99 11.4117 21.1712 12.3411C21.3525 13.2704 20.743 14.1778 19.8168 14.3597C17.0283 14.9033 14.8751 17.0618 14.3294 19.8599V19.8619C14.174 20.6674 13.4649 21.253 12.6483 21.253C12.5387 21.253 12.4292 21.243 12.3176 21.223C11.3915 21.0371 10.782 20.1317 10.9632 19.2004C11.7779 15.0212 14.9946 11.7934 19.1635 10.98Z" fill="#16476D"/>
<path id="Fill 3" opacity="0.4" d="M19.2883 4.01586C19.7345 3.9519 20.1826 4.08381 20.5392 4.36762C20.9056 4.65542 21.1347 5.07113 21.1845 5.53682C21.2901 6.47817 20.6109 7.32958 19.6707 7.43551C13.1874 8.15901 8.14815 13.2095 7.41915 19.7131C7.32155 20.5845 6.59056 21.242 5.71815 21.242C5.65242 21.242 5.58868 21.238 5.52295 21.23C5.06683 21.1801 4.6605 20.9542 4.37368 20.5945C4.08885 20.2347 3.95938 19.787 4.01117 19.3293C4.91943 11.2149 11.1996 4.91724 19.2883 4.01586Z" fill="#16476D"/>
</g>
</g>
<g id="Call">
<path id="Stroke 1" fill-rule="evenodd" clip-rule="evenodd" d="M25.9365 25.9448C17.9584 33.9207 16.1485 24.6934 11.0687 29.7696C6.17145 34.6655 3.35677 35.6464 9.56153 41.8494C10.3387 42.474 15.2768 49.9885 32.6308 32.6393C49.987 15.288 42.4768 10.3449 41.8521 9.5679C35.6323 3.34769 34.6683 6.17877 29.771 11.0747C24.6913 16.153 33.9147 17.9688 25.9365 25.9448Z" fill="#16476D"/>
</g>
</g>
</svg>
