<svg xmlns="http://www.w3.org/2000/svg" width="24" height="25" viewBox="0 0 24 25" fill="none">
  <mask id="path-1-inside-1_26108_5632" fill="white">
    <path d="M19 13.8599H2C1.59 13.8599 1.25 13.5199 1.25 13.1099C1.25 12.6999 1.59 12.3599 2 12.3599H19C19.41 12.3599 19.75 12.6999 19.75 13.1099C19.75 13.5199 19.41 13.8599 19 13.8599Z"/>
  </mask>
  <path d="M19 13.8599H2C1.59 13.8599 1.25 13.5199 1.25 13.1099C1.25 12.6999 1.59 12.3599 2 12.3599H19C19.41 12.3599 19.75 12.6999 19.75 13.1099C19.75 13.5199 19.41 13.8599 19 13.8599Z" fill="#16476D"/>
  <path d="M19 12.3599H2V15.3599H19V12.3599ZM2 12.3599C2.41843 12.3599 2.75 12.6914 2.75 13.1099H-0.25C-0.25 14.3483 0.761573 15.3599 2 15.3599V12.3599ZM2.75 13.1099C2.75 13.5283 2.41843 13.8599 2 13.8599V10.8599C0.761573 10.8599 -0.25 11.8714 -0.25 13.1099H2.75ZM2 13.8599H19V10.8599H2V13.8599ZM19 13.8599C18.5816 13.8599 18.25 13.5283 18.25 13.1099H21.25C21.25 11.8714 20.2384 10.8599 19 10.8599V13.8599ZM18.25 13.1099C18.25 12.6914 18.5816 12.3599 19 12.3599V15.3599C20.2384 15.3599 21.25 14.3483 21.25 13.1099H18.25Z" fill="#16476D" mask="url(#path-1-inside-1_26108_5632)"/>
  <path d="M4.99745 7.07051L4.99745 7.07039L4.98403 7.07122C4.89776 7.07652 4.81125 7.08244 4.72483 7.08949C4.81211 7.08135 4.90256 7.07449 4.99632 7.06896C5.25424 7.05905 5.50877 7.0498 5.78003 7.0498C5.49247 7.0498 5.22847 7.06047 4.99745 7.07051ZM2.55288 8.04439C2.62641 7.94141 2.7131 7.84281 2.81705 7.75046C2.75574 7.80723 2.69711 7.86893 2.64147 7.93602C2.51977 8.08276 2.42196 8.24378 2.34303 8.41611C2.40392 8.27877 2.47368 8.15531 2.55288 8.04439Z" fill="#16476D" stroke="#16476D" stroke-width="1.5"/>
  <path d="M19 18.68C18.81 18.68 18.62 18.61 18.49 18.48C18.34 18.34 18.25 18.14 18.25 17.93V10.78C18.25 8.22 17.83 7.8 15.22 7.8H5.78003C5.51003 7.8 5.26003 7.81 5.03003 7.82C4.83003 7.83 4.62998 7.75 4.47998 7.61C4.32998 7.47 4.25 7.27 4.25 7.06C4.29 3.8 5.39003 2.75 8.78003 2.75H18.22C21.65 2.75 22.75 3.84 22.75 7.23V14.22C22.75 16.91 22.14 18.5 19.04 18.68C19.03 18.68 19.01 18.68 19 18.68ZM5.78003 6.3H15.22C18.65 6.3 19.75 7.39 19.75 10.78V17.1C20.91 16.89 21.25 16.29 21.25 14.22V7.23C21.25 4.67 20.83 4.25 18.22 4.25H8.78003C6.50003 4.25 5.91003 4.56 5.78003 6.3Z" fill="#16476D"/>
  <path d="M6.96222 19.0601H5.24219C4.83219 19.0601 4.49219 18.7201 4.49219 18.3101C4.49219 17.9001 4.83219 17.5601 5.24219 17.5601H6.96222C7.37222 17.5601 7.71222 17.9001 7.71222 18.3101C7.71222 18.7201 7.38222 19.0601 6.96222 19.0601Z" fill="#16476D"/>
  <path d="M12.5494 19.0601H9.10938C8.69938 19.0601 8.35938 18.7201 8.35938 18.3101C8.35938 17.9001 8.69938 17.5601 9.10938 17.5601H12.5494C12.9594 17.5601 13.2994 17.9001 13.2994 18.3101C13.2994 18.7201 12.9694 19.0601 12.5494 19.0601Z" fill="#16476D"/>
</svg>