<svg width="24" height="24" viewBox="0 0 24 24" fill="none" xmlns="http://www.w3.org/2000/svg">
<g id="vuesax/outline/card-pos">
<g id="card-pos">
<path id="Vector" d="M3.93076 15.8898C3.93087 15.8897 3.93098 15.8896 3.93109 15.8895L3.93076 15.8898ZM3.93076 15.8898L3.93109 15.8901L4.46109 16.4201L3.93109 15.8906L3.93054 15.89L3.93076 15.8898ZM3.93176 15.8801L14.3025 5.50937L3.94184 15.8787C3.94096 15.8789 3.93998 15.8791 3.93894 15.8793C3.93599 15.8799 3.93348 15.8801 3.93176 15.8801ZM3.93142 15.8798V15.8801C3.93131 15.8801 3.9312 15.8801 3.93109 15.8801L3.93142 15.8798Z" fill="#6C777A" stroke="#6C777A" stroke-width="1.5"/>
<g id="Vector_2">
<mask id="path-2-inside-1_26067_7599" fill="white">
<path d="M11.0991 19.03C10.9091 19.03 10.7191 18.96 10.5691 18.81C10.2791 18.52 10.2791 18.04 10.5691 17.75L11.7691 16.55C12.0591 16.26 12.5391 16.26 12.8291 16.55C13.1191 16.84 13.1191 17.32 12.8291 17.61L11.6291 18.81C11.4891 18.95 11.2991 19.03 11.0991 19.03Z"/>
</mask>
<path d="M11.0991 19.03C10.9091 19.03 10.7191 18.96 10.5691 18.81C10.2791 18.52 10.2791 18.04 10.5691 17.75L11.7691 16.55C12.0591 16.26 12.5391 16.26 12.8291 16.55C13.1191 16.84 13.1191 17.32 12.8291 17.61L11.6291 18.81C11.4891 18.95 11.2991 19.03 11.0991 19.03Z" fill="#6C777A"/>
<path d="M12.8291 17.61L13.8897 18.6707L13.8897 18.6707L12.8291 17.61ZM11.6291 18.81L10.5684 17.7494L10.5684 17.7494L11.6291 18.81ZM11.0991 17.53C11.2854 17.53 11.4836 17.6032 11.6297 17.7494L9.5084 19.8707C9.95453 20.3168 10.5327 20.53 11.0991 20.53V17.53ZM11.6297 17.7494C11.9255 18.0451 11.9255 18.5149 11.6297 18.8107L9.5084 16.6894C8.63262 17.5651 8.63262 18.9949 9.5084 19.8707L11.6297 17.7494ZM11.6297 18.8107L12.8297 17.6107L10.7084 15.4894L9.5084 16.6894L11.6297 18.8107ZM12.8297 17.6107C12.5339 17.9065 12.0642 17.9065 11.7684 17.6107L13.8897 15.4894C13.0139 14.6136 11.5842 14.6136 10.7084 15.4894L12.8297 17.6107ZM11.7684 17.6107C11.4726 17.3149 11.4726 16.8451 11.7684 16.5494L13.8897 18.6707C14.7655 17.7949 14.7655 16.3651 13.8897 15.4894L11.7684 17.6107ZM11.7684 16.5494L10.5684 17.7494L12.6897 19.8707L13.8897 18.6707L11.7684 16.5494ZM10.5684 17.7494C10.7065 17.6113 10.8967 17.53 11.0991 17.53V20.53C11.7014 20.53 12.2716 20.2888 12.6897 19.8707L10.5684 17.7494Z" fill="#6C777A" mask="url(#path-2-inside-1_26067_7599)"/>
</g>
<g id="Vector_3">
<mask id="path-4-inside-2_26067_7599" fill="white">
<path d="M13.7905 16.3401C13.6005 16.3401 13.4105 16.2701 13.2605 16.1201C12.9705 15.8301 12.9705 15.3501 13.2605 15.0601L15.6505 12.6701C15.9405 12.3801 16.4205 12.3801 16.7105 12.6701C17.0005 12.9601 17.0005 13.4401 16.7105 13.7301L14.3205 16.1201C14.1805 16.2601 13.9805 16.3401 13.7905 16.3401Z"/>
</mask>
<path d="M13.7905 16.3401C13.6005 16.3401 13.4105 16.2701 13.2605 16.1201C12.9705 15.8301 12.9705 15.3501 13.2605 15.0601L15.6505 12.6701C15.9405 12.3801 16.4205 12.3801 16.7105 12.6701C17.0005 12.9601 17.0005 13.4401 16.7105 13.7301L14.3205 16.1201C14.1805 16.2601 13.9805 16.3401 13.7905 16.3401Z" fill="#6C777A"/>
<path d="M13.2605 15.0601L14.3211 16.1208L14.3211 16.1208L13.2605 15.0601ZM15.6505 12.6701L14.5898 11.6095L14.5898 11.6095L15.6505 12.6701ZM16.7105 13.7301L15.6498 12.6695L15.6498 12.6695L16.7105 13.7301ZM14.3205 16.1201L15.3811 17.1808L15.3811 17.1808L14.3205 16.1201ZM13.7905 14.8401C13.9768 14.8401 14.175 14.9133 14.3211 15.0595L12.1998 17.1808C12.6459 17.6269 13.2241 17.8401 13.7905 17.8401V14.8401ZM14.3211 15.0595C14.6169 15.3553 14.6169 15.825 14.3211 16.1208L12.1998 13.9995C11.324 14.8753 11.324 16.305 12.1998 17.1808L14.3211 15.0595ZM14.3211 16.1208L16.7111 13.7308L14.5898 11.6095L12.1998 13.9995L14.3211 16.1208ZM16.7111 13.7308C16.4153 14.0266 15.9456 14.0266 15.6498 13.7308L17.7711 11.6095C16.8953 10.7337 15.4656 10.7337 14.5898 11.6095L16.7111 13.7308ZM15.6498 13.7308C15.354 13.435 15.354 12.9653 15.6498 12.6695L17.7711 14.7908C18.6469 13.915 18.6469 12.4853 17.7711 11.6095L15.6498 13.7308ZM15.6498 12.6695L13.2598 15.0595L15.3811 17.1808L17.7711 14.7908L15.6498 12.6695ZM13.2598 15.0595C13.3395 14.9798 13.4246 14.9279 13.5041 14.8952C13.583 14.8628 13.6787 14.8401 13.7905 14.8401V17.8401C14.3722 17.8401 14.9556 17.6063 15.3811 17.1808L13.2598 15.0595Z" fill="#6C777A" mask="url(#path-4-inside-2_26067_7599)"/>
</g>
<path id="Vector_4" d="M11.0989 22.7499C10.1189 22.7499 9.13894 22.1499 7.94894 20.9599L3.03894 16.0499C0.648937 13.6599 0.658937 12.1199 3.06894 9.70991L9.70894 3.06991C12.1189 0.659914 13.6589 0.649914 16.0489 3.03991L20.9589 7.94991C23.3489 10.3399 23.3389 11.8799 20.9289 14.2899L14.2889 20.9299C13.0789 22.1399 12.0889 22.7499 11.0989 22.7499ZM12.8989 2.74991C12.3789 2.74991 11.7189 3.17991 10.7689 4.12991L4.12894 10.7699C3.17894 11.7199 2.74894 12.3799 2.74894 12.8899C2.74894 13.4099 3.14894 14.0399 4.09894 14.9899L9.00894 19.8999C9.95894 20.8499 10.5789 21.2499 11.0989 21.2499C11.0989 21.2499 11.0989 21.2499 11.1089 21.2499C11.6289 21.2499 12.2789 20.8199 13.2289 19.8699L19.8689 13.2299C20.8189 12.2799 21.2489 11.6199 21.2489 11.1099C21.2489 10.5899 20.8489 9.95991 19.8989 9.00991L14.9889 4.09991C14.0489 3.14991 13.4189 2.74991 12.8989 2.74991Z" fill="#6C777A"/>
<path id="Vector_5" d="M22 22.75H2C1.59 22.75 1.25 22.41 1.25 22C1.25 21.59 1.59 21.25 2 21.25H22C22.41 21.25 22.75 21.59 22.75 22C22.75 22.41 22.41 22.75 22 22.75Z" fill="#6C777A"/>
</g>
</g>
</svg>
