<svg width="24" height="24" viewBox="0 0 24 24" fill="none" xmlns="http://www.w3.org/2000/svg">
<g id="vuesax/bulk/clock">
<g id="clock">
<path id="Vector" opacity="0.4" d="M21.25 12C21.25 17.1086 17.1086 21.25 12 21.25C6.89137 21.25 2.75 17.1086 2.75 12C2.75 6.89137 6.89137 2.75 12 2.75C17.1086 2.75 21.25 6.89137 21.25 12Z" fill="#16476D" stroke="#16476D" stroke-width="1.5"/>
<path id="Vector_2" d="M15.7148 15.1746C15.7146 15.1749 15.7144 15.1751 15.7142 15.1753L12.6153 13.3259C12.1601 13.054 11.7831 12.4722 11.6731 11.9219C11.7225 12.1671 11.8219 12.3975 11.9274 12.5831C12.0757 12.8437 12.3085 13.1435 12.6194 13.3257L15.7159 15.1736C15.7155 15.174 15.7152 15.1743 15.7148 15.1746Z" fill="#16476D" stroke="#16476D" stroke-width="1.5"/>
</g>
</g>
</svg>
