<svg width="32" height="32" viewBox="0 0 32 32" fill="none" xmlns="http://www.w3.org/2000/svg">
<g id="vuesax/bold/eye">
<path id="Vector" d="M28.3346 12.1999C25.2546 7.35991 20.748 4.57324 16.0013 4.57324C13.628 4.57324 11.3213 5.26658 9.21464 6.55991C7.10797 7.86658 5.21464 9.77324 3.66797 12.1999C2.33464 14.2932 2.33464 17.6932 3.66797 19.7866C6.74797 24.6399 11.2546 27.4132 16.0013 27.4132C18.3746 27.4132 20.6813 26.7199 22.788 25.4266C24.8946 24.1199 26.788 22.2132 28.3346 19.7866C29.668 17.7066 29.668 14.2932 28.3346 12.1999ZM16.0013 21.3866C13.0146 21.3866 10.6146 18.9732 10.6146 15.9999C10.6146 13.0266 13.0146 10.6132 16.0013 10.6132C18.988 10.6132 21.388 13.0266 21.388 15.9999C21.388 18.9732 18.988 21.3866 16.0013 21.3866Z" fill="#16476D"/>
<path id="Vector_2" d="M15.9992 12.1865C13.9059 12.1865 12.1992 13.8932 12.1992 15.9999C12.1992 18.0932 13.9059 19.7999 15.9992 19.7999C18.0926 19.7999 19.8126 18.0932 19.8126 15.9999C19.8126 13.9065 18.0926 12.1865 15.9992 12.1865Z" fill="#16476D"/>
</g>
</svg>
