  <svg width="24" height="24" viewBox="0 0 24 24" fill="none" xmlns="http://www.w3.org/2000/svg">
    <path d="M15.5819 11.9999C15.5819 13.9799 13.9819 15.5799 12.0019 15.5799C10.0219 15.5799 8.42188 13.9799 8.42188 11.9999C8.42188 10.0199 10.0219 8.41992 12.0019 8.41992C13.9819 8.41992 15.5819 10.0199 15.5819 11.9999Z" stroke="#C1C2C3" strokeWidth="1.5" strokeLinecap="round" strokeLinejoin="round"/>
    <path d="M12.0037 20.2702C15.5337 20.2702 18.8238 18.1902 21.1138 14.5902C22.0138 13.1802 22.0138 10.8102 21.1138 9.40021C18.8238 5.80021 15.5337 3.72021 12.0037 3.72021C8.47375 3.72021 5.18375 5.80021 2.89375 9.40021C1.99375 10.8102 1.99375 13.1802 2.89375 14.5902C5.18375 18.1902 8.47375 20.2702 12.0037 20.2702Z" stroke="#C1C2C3" strokeWidth="1.5" strokeLinecap="round" strokeLinejoin="round"/>
  </svg>