<svg width="98" height="71" viewBox="0 0 98 71" fill="none" xmlns="http://www.w3.org/2000/svg">
<g clip-path="url(#clip0_25469_11129)">
    <path d="M30.4801 67.7005C29.9935 67.3203 29.4527 67.0151 28.8754 66.795C28.3352 66.6052 27.7692 66.4986 27.1968 66.4791C25.9568 66.4652 24.7206 66.6209 23.523 66.9425C22.2984 67.2478 21.1266 67.6053 20.2609 67.9004C19.3953 68.1949 18.8251 68.4163 18.8251 68.4163C18.8251 68.4163 19.3847 68.7322 20.2715 69.1112C21.3819 69.5917 22.5436 69.9448 23.7341 70.1636C25.0797 70.4272 26.4668 70.3951 27.7986 70.069C28.4124 69.9379 28.9817 69.651 29.4515 69.236C29.9214 68.8211 30.2757 68.292 30.4801 67.7005Z" fill="#F49100" />
    <path d="M26.7424 62.2893C27.1979 63.3828 27.9244 64.3426 28.8537 65.0791C29.2942 65.4209 29.8068 65.6586 30.3529 65.774C30.9157 65.8888 31.5 65.8339 32.0314 65.6157C32.068 64.5002 31.7663 63.3998 31.1657 62.4583C30.5922 61.5837 29.879 60.8081 29.0543 60.1636C28.338 59.5885 27.587 59.0575 26.8057 58.5739C26.1828 58.1842 25.75 57.9635 25.75 57.9635C25.75 57.9635 25.75 58.1003 25.75 58.3424C25.75 58.5846 25.8133 58.9106 25.8872 59.3318C26.0503 60.349 26.3375 61.3422 26.7424 62.2893Z" fill="#F49100" />
    <path d="M17.9377 65.1321C18.5342 65.1252 19.1213 64.982 19.6539 64.714C20.1864 64.4454 20.6502 64.0594 21.0098 63.5846C20.729 63.089 20.3503 62.6551 19.8967 62.3095C19.443 61.964 18.9239 61.7136 18.3705 61.5736C17.1758 61.2552 15.944 61.0956 14.7072 61.1001C13.4509 61.1001 12.1946 61.1001 11.2551 61.1001H9.68209C9.68209 61.1001 9.79825 61.2369 10.0094 61.4475C10.2205 61.6581 10.5478 61.9425 10.949 62.2686C11.9144 63.0618 12.979 63.7271 14.116 64.2474C15.3041 64.8332 16.6123 65.1359 17.9377 65.1321Z" fill="#F49100" />
    <path d="M20.3241 60.3213C20.6514 60.7702 21.0847 61.1322 21.5855 61.3744C22.0863 61.6171 22.6393 61.7325 23.1955 61.7111C23.6349 60.6536 23.6612 59.4706 23.2695 58.3954C22.8945 57.4073 22.3674 56.4841 21.707 55.6586C21.1053 54.8376 20.493 54.1319 20.0496 53.6376C19.8279 53.374 19.6378 53.1741 19.5112 53.0372L19.3106 52.8266C19.3106 52.8266 19.3106 52.9534 19.2051 53.1741C19.1254 53.49 19.062 53.8097 19.015 54.132C18.8596 55.1403 18.8596 56.1663 19.015 57.174C19.1804 58.316 19.6305 59.3981 20.3241 60.3213Z" fill="#F49100" />
    <path d="M5.26942 51.553C4.40373 51.2793 3.83367 51.1214 3.83367 51.1214C3.83367 51.1214 3.88646 51.2688 4.00261 51.5109C4.1187 51.753 4.29817 52.0793 4.51989 52.4793C4.74154 52.8796 5.01604 53.3424 5.33279 53.8267C5.49113 54.0689 5.66001 54.311 5.83948 54.5633L5.97676 54.7531L6.15623 54.9845L6.52569 55.448C7.43766 56.5938 8.65106 57.4653 10.0306 57.9635C10.6019 58.1734 11.2168 58.2384 11.8195 58.152C12.4223 58.0656 12.9939 57.831 13.4828 57.4691C13.2009 56.3441 12.5227 55.3578 11.5719 54.69C11.3503 54.5109 11.0969 54.3426 10.8435 54.1635L10.0412 53.6584L9.18606 53.1633C8.92215 53.0164 8.64765 52.8796 8.37315 52.7528C7.36672 52.2841 6.32983 51.8832 5.26942 51.553Z" fill="#F49100" />
    <path d="M13.779 53.7214C13.9224 54.2536 14.2068 54.7379 14.6024 55.1232C14.998 55.5085 15.4903 55.7803 16.0276 55.9108C16.7244 55.0293 17.1201 53.9484 17.1572 52.8266C17.1851 51.8927 17.1214 50.9585 16.9671 50.0371C16.9036 49.5706 16.8048 49.1096 16.6716 48.6581C16.5343 48.1949 16.3971 47.7738 16.2599 47.4265C16.1226 47.0791 16.0065 46.7844 15.9221 46.5844L15.8059 46.2686L15.5842 46.5844C15.447 46.7949 15.278 47.0897 15.088 47.458C14.5974 48.3944 14.2047 49.3785 13.9162 50.3949C13.8423 50.6791 13.7684 50.9739 13.7051 51.2686C13.6501 51.5468 13.6114 51.828 13.5889 52.1107C13.5625 52.3908 13.5625 52.6727 13.5889 52.9527C13.6279 53.2144 13.6916 53.4717 13.779 53.7214Z" fill="#F49100" />
    <path d="M3.93917 47.2368C4.14569 47.4759 4.37169 47.6978 4.61485 47.8999C4.84344 48.0972 5.08698 48.2767 5.34325 48.4367C5.822 48.7853 6.37365 49.0213 6.95689 49.1271C7.54013 49.2328 8.13976 49.2055 8.71096 49.0473C8.81091 48.4855 8.77471 47.908 8.6054 47.3631C8.52714 47.105 8.41722 46.8574 8.27812 46.6262C8.14046 46.386 7.98886 46.1541 7.82415 45.9315C7.0675 44.9833 6.15338 44.1715 5.12153 43.5314C4.21297 42.892 3.26834 42.305 2.2923 41.7735L0.962115 41.0577C0.962115 41.0577 0.962115 41.2156 1.04655 41.4788C1.13105 41.742 1.22602 42.1104 1.38436 42.5314C1.72343 43.64 2.20231 44.7011 2.80958 45.6893C3.14707 46.2324 3.52467 46.7496 3.93917 47.2368Z" fill="#F49100" />
    <path d="M10.548 46.7948C10.7849 47.2937 11.1489 47.722 11.6037 48.0369C12.6182 47.4701 13.3744 46.5351 13.715 45.4264C13.7992 45.1679 13.8662 44.9041 13.9156 44.6369L13.979 44.2369C13.979 44.1106 13.979 43.9738 14.0423 43.8369C14.1052 43.299 14.1264 42.757 14.1057 42.2158C14.0704 41.2993 13.9822 40.3855 13.8417 39.479C13.7784 39.1211 13.715 38.8263 13.6728 38.6264C13.6306 38.4263 13.6095 38.3106 13.6095 38.3106L13.3456 38.5737C13.1104 38.8069 12.8884 39.0529 12.6805 39.3106C12.0255 40.1105 11.4592 40.9787 10.9913 41.9C10.4758 42.9386 10.1982 44.0783 10.1784 45.2369C10.181 45.5103 10.2165 45.7824 10.284 46.0474C10.3437 46.3056 10.4322 46.5564 10.548 46.7948Z" fill="#F49100" />
    <path d="M1.80693 37.2369C1.95474 37.5163 2.12418 37.7837 2.31368 38.0368C2.50469 38.2827 2.71278 38.5149 2.93652 38.7316C3.34061 39.156 3.83468 39.4849 4.38267 39.6943C4.93066 39.9037 5.51863 39.9884 6.10363 39.9421C6.31312 39.4142 6.38929 38.8431 6.32535 38.279C6.293 38.0103 6.2329 37.7458 6.14588 37.4895C6.07822 37.2234 5.98993 36.963 5.88191 36.7105C5.62766 36.1778 5.31236 35.6762 4.94239 35.2158L4.37226 34.5C4.18226 34.2579 3.97114 34.0263 3.77055 33.7947C2.93652 32.8895 2.02865 32.0474 1.38468 31.4263C0.740716 30.8052 0.265625 30.3947 0.265625 30.3947C0.265625 30.3947 0.265625 31.0263 0.265625 31.9736C0.314875 32.5177 0.392375 33.0587 0.497874 33.5947C0.561249 33.8895 0.624561 34.1947 0.698467 34.5C0.766823 34.814 0.854981 35.1233 0.962372 35.4263C1.20168 36.0485 1.48388 36.6535 1.80693 37.2369Z" fill="#F49100" />
    <path d="M9.14414 39.2579C10.2255 38.8963 11.1327 38.1457 11.6884 37.1526C11.8235 36.9237 11.94 36.6843 12.0368 36.4368C12.1576 36.1944 12.2633 35.9448 12.3535 35.6895C12.5197 35.1985 12.6467 34.6951 12.7336 34.1842C12.8285 33.6894 12.9341 33.2053 12.9869 32.7631C12.9869 32.5315 12.9869 32.321 13.0502 32.121C13.1136 31.921 13.0502 31.7316 13.0502 31.5526C13.1084 31.1691 13.1436 30.7824 13.1558 30.3947C13.1558 30.3947 12.6913 30.6578 12.0262 31.1315L11.4878 31.5315C11.2978 31.6894 11.1078 31.8473 10.9178 32.0263C10.5055 32.3942 10.1209 32.7917 9.76704 33.2158C9.58757 33.4368 9.40811 33.6684 9.23917 33.9105L9.00692 34.2789L8.80633 34.6684C8.55485 35.1722 8.37027 35.7065 8.2574 36.2579C8.19856 36.524 8.17025 36.7959 8.17289 37.0684C8.18853 37.3317 8.23097 37.5927 8.29958 37.8474C8.45137 38.3836 8.74276 38.8702 9.14414 39.2579Z" fill="#F49100" />
    <path d="M4.75285 24.0789C4.46782 23.5315 4.16167 23.0262 3.86611 22.5104L3.05321 21.1946C2.57812 20.4262 2.22977 19.9315 2.22977 19.9315C2.22977 19.9315 2.05031 20.5315 1.86024 21.4578C1.79693 21.9315 1.72302 22.5104 1.68077 23.0894C1.68077 23.3841 1.68077 23.6999 1.68077 24.0157C1.68077 24.3315 1.68077 24.6578 1.68077 24.9841C1.73223 25.6374 1.83817 26.2853 1.99752 26.921C2.16362 27.5308 2.4122 28.1151 2.73652 28.6579C3.02798 29.1649 3.43308 29.5979 3.92028 29.923C4.40742 30.2481 4.96335 30.4563 5.54463 30.5316C5.70272 30.2921 5.83042 30.034 5.92469 29.7631C6.02445 29.5087 6.09527 29.2438 6.13582 28.9736C6.21685 28.4336 6.19175 27.8831 6.06198 27.3526C5.94109 26.7836 5.76793 26.2268 5.54463 25.6894C5.31238 25.1315 5.02735 24.5631 4.75285 24.0789Z" fill="#F49100" />
    <path d="M11.5831 28.8368C11.9567 28.4717 12.2829 28.0615 12.5543 27.6157C12.8508 27.1977 13.1088 26.7538 13.325 26.2894C13.4411 26.0683 13.5256 25.8473 13.6311 25.6367L13.9056 25.0052C14.0746 24.5946 14.2013 24.2157 14.3174 23.8894C14.5602 23.2473 14.6763 22.8368 14.6763 22.8368C14.2364 22.9503 13.8029 23.0873 13.3778 23.2473C12.4274 23.6034 11.5291 24.0849 10.7069 24.6789C10.4667 24.8428 10.2375 25.022 10.0207 25.2157C9.8096 25.4087 9.60876 25.6124 9.41895 25.8262C9.04008 26.2495 8.72371 26.7245 8.47935 27.2368C8.26319 27.7204 8.1517 28.2441 8.15208 28.7736C8.14489 29.0372 8.18051 29.3003 8.25764 29.5526C8.34447 29.8227 8.4651 30.0809 8.61657 30.321C9.74932 30.1881 10.7993 29.6629 11.5831 28.8368Z" fill="#F49100" />
    <path d="M7.8769 20.6895C8.04174 20.4752 8.18003 20.242 8.28868 19.9947C8.39292 19.7511 8.4708 19.497 8.52093 19.2368C8.52093 18.9737 8.59477 18.7 8.62649 18.4262C8.6606 17.8526 8.6287 17.2769 8.53146 16.7104C8.45106 16.1041 8.33471 15.503 8.18305 14.9105C7.8769 13.7104 7.54968 12.5841 7.24352 11.7525C6.93737 10.9209 6.74731 10.2893 6.74731 10.2893C6.74731 10.2893 6.66287 10.4262 6.53619 10.6578C6.4095 10.8893 6.24056 11.2473 6.04003 11.7104C5.56198 12.7681 5.20777 13.8772 4.98428 15.0157C4.87948 15.6458 4.81951 16.2825 4.80482 16.921C4.80847 17.2381 4.83313 17.5546 4.87872 17.8683C4.92822 18.1702 4.99519 18.469 5.07932 18.7631C5.23268 19.3238 5.50648 19.8446 5.88162 20.2895C6.26541 20.7535 6.75879 21.1152 7.31743 21.3421C7.53284 21.1509 7.72108 20.9313 7.8769 20.6895Z" fill="#F49100" />
    <path d="M17.8854 16.121C18.0015 15.9526 18.0543 15.8579 18.0543 15.8579H17.6848C17.4315 15.8579 17.1042 15.8579 16.7031 15.9421C16.3019 16.0263 15.8268 16.0684 15.3201 16.1842C15.0667 16.2368 14.8027 16.3105 14.5388 16.3842C14.2749 16.4579 14.0216 16.5631 13.7577 16.6684C13.2176 16.8727 12.7008 17.1338 12.2163 17.4473C11.7536 17.7425 11.3312 18.0963 10.96 18.5C10.7893 18.7027 10.6439 18.9253 10.5272 19.1631C10.4128 19.396 10.3209 19.6392 10.2527 19.8895C10.1807 20.1428 10.1452 20.4051 10.1471 20.6684C10.1702 20.9504 10.2233 21.2292 10.3055 21.5C10.8807 21.6116 11.4722 21.6116 12.0474 21.5C12.5725 21.38 13.0774 21.185 13.5465 20.921C13.7682 20.7842 13.9899 20.6474 14.201 20.4895L14.4966 20.2474L14.8027 19.9948C15.1843 19.6747 15.5375 19.3225 15.8585 18.9421C16.1754 18.6097 16.4716 18.2581 16.7452 17.8895L16.9353 17.6158L17.1148 17.3737C17.2415 17.2053 17.347 17.0474 17.442 16.9105C17.537 16.7737 17.7904 16.3 17.8854 16.121Z" fill="#F49100" />
    <path d="M11.3187 12.9419C11.8177 12.699 12.2491 12.3375 12.575 11.8893C12.9017 11.4624 13.142 10.9762 13.2823 10.4577C13.8567 8.24652 13.7047 5.89705 13.504 3.64711C13.409 2.77342 13.314 2.18394 13.314 2.18394C12.8869 2.51521 12.5636 2.89975 12.2477 3.34184C11.9276 3.75993 11.6316 4.19567 11.3609 4.64712C11.0457 5.17297 10.7636 5.71787 10.5164 6.27872C10.2655 6.86442 10.0642 7.47005 9.91466 8.08929C9.78948 8.69132 9.73979 9.3066 9.76685 9.92086C9.7816 10.5083 9.92878 11.0848 10.1974 11.6078C10.4661 12.1307 10.8493 12.5867 11.3187 12.9419Z" fill="#F49100" />
    <path d="M20.1863 12.3102C20.598 12.0049 20.9781 11.7101 21.3159 11.4154C21.6537 11.1207 21.9705 10.8364 22.2133 10.5944C22.4561 10.3523 22.6778 10.1417 22.815 9.99435L23.0367 9.76279C22.59 9.67293 22.139 9.60622 21.6854 9.56277C21.2329 9.51869 20.7781 9.5011 20.3235 9.51018C19.772 9.50627 19.2211 9.54858 18.6767 9.63649C17.5392 9.76822 16.4516 10.1767 15.5096 10.8259C15.0837 11.1463 14.725 11.5468 14.4539 12.0049C14.215 12.4846 14.1023 13.0172 14.1266 13.5523C15.1685 14.0016 16.3379 14.0614 17.4204 13.7207C17.928 13.5739 18.4169 13.3691 18.8773 13.1102C19.3332 12.8767 19.7708 12.6093 20.1863 12.3102Z" fill="#F49100" />
    <path d="M16.8155 7.5145C17.4365 7.5145 18.4057 7.57134 19.1944 7.02621C19.4082 6.86989 19.6126 6.7012 19.8066 6.52092C20.0097 6.3412 20.2002 6.14773 20.3767 5.94196C20.7579 5.53132 21.1107 5.0952 21.4324 4.63669C22.0447 3.73147 22.5726 2.79459 22.9526 2.08933C23.1427 1.74194 23.2754 1.43684 23.3809 1.22634L23.4524 1.04653L23.491 0.920898L22.9991 0.955384C22.6718 0.998517 22.4803 1.02728 22.1608 1.11039C21.1522 1.36566 20.1803 1.74767 19.2682 2.24723C18.2146 2.79087 17.3035 3.57319 16.6079 4.53144C16.2852 4.98674 16.0687 5.50824 15.9745 6.0578C15.8694 6.51858 15.8723 6.98107 15.9745 7.45779" fill="#F49100" />
    <g clip-path="url(#clip1_25469_11129)">
        <path d="M59.3537 28.6172L53.7735 27.8063L51.2779 22.7499C50.3144 20.7973 47.5272 20.7966 46.5632 22.7498L44.0676 27.8063L38.4874 28.6172C36.3327 28.9303 35.4708 31.5807 37.0305 33.1012L41.0684 37.0372L40.1152 42.5947C39.7471 44.7406 42.0013 46.3795 43.9295 45.3661L48.9206 42.742L53.9117 45.3661C55.8422 46.3808 58.0932 44.7358 57.7259 42.5947L56.7727 37.0372L60.8106 33.1012C62.3697 31.5812 61.5093 28.9305 59.3537 28.6172Z" fill="#F49100" />
        <path d="M40.9325 21.8512L39.585 19.9967C39.2192 19.4934 38.5146 19.3817 38.0113 19.7475C37.508 20.1132 37.3964 20.8178 37.7621 21.3212L39.1096 23.1757C39.4756 23.6793 40.1802 23.7905 40.6832 23.4248C41.1866 23.0592 41.2982 22.3545 40.9325 21.8512Z" fill="#F49100" />
        <path d="M36.4306 38.4654C36.2383 37.8737 35.6029 37.5495 35.011 37.742L32.7866 38.4649C32.1948 38.657 31.871 39.2927 32.0632 39.8845C32.2559 40.4774 32.8927 40.7999 33.4829 40.6078L35.7074 39.885C36.2991 39.6929 36.6229 39.0572 36.4306 38.4654Z" fill="#F49100" />
        <path d="M59.8708 19.7475C59.3675 19.3817 58.6629 19.4933 58.2971 19.9967L56.9497 21.8512C56.5839 22.3545 56.6955 23.0592 57.1989 23.4249C57.7024 23.7907 58.4069 23.6789 58.7725 23.1757L60.12 21.3212C60.4858 20.8178 60.3741 20.1133 59.8708 19.7475Z" fill="#F49100" />
        <path d="M65.0277 38.4649L62.8033 37.7421C62.2115 37.5495 61.5759 37.8737 61.3836 38.4654C61.1913 39.0572 61.5151 39.6928 62.1069 39.8851L64.3314 40.6079C64.922 40.8 65.5585 40.4771 65.751 39.8846C65.9433 39.2928 65.6195 38.6572 65.0277 38.4649Z" fill="#F49100" />
        <path d="M48.9391 47.1963C48.3169 47.1963 47.8125 47.7007 47.8125 48.3229V50.6096C47.8125 51.2318 48.3169 51.7362 48.9391 51.7362C49.5613 51.7362 50.0657 51.2318 50.0657 50.6096V48.3229C50.0658 47.7007 49.5614 47.1963 48.9391 47.1963Z" fill="#F49100" />
    </g>
    <path d="M67.3902 67.7005C67.8768 67.3203 68.4176 67.0151 68.9949 66.795C69.5351 66.6052 70.1011 66.4986 70.6735 66.4791C71.9136 66.4652 73.1497 66.6209 74.3473 66.9425C75.5719 67.2478 76.7437 67.6053 77.6094 67.9004C78.475 68.1949 79.0452 68.4163 79.0452 68.4163C79.0452 68.4163 78.4856 68.7322 77.5988 69.1112C76.4884 69.5917 75.3267 69.9448 74.1362 70.1636C72.7906 70.4272 71.4035 70.3951 70.0717 70.069C69.4579 69.9379 68.8886 69.651 68.4188 69.236C67.9489 68.8211 67.5947 68.292 67.3902 67.7005Z" fill="#F49100" />
    <path d="M71.1279 62.2893C70.6724 63.3828 69.9459 64.3426 69.0166 65.0791C68.5761 65.4209 68.0635 65.6586 67.5174 65.774C66.9546 65.8888 66.3703 65.8339 65.8389 65.6157C65.8023 64.5002 66.104 63.3998 66.7046 62.4583C67.2781 61.5837 67.9913 60.8081 68.816 60.1636C69.5323 59.5885 70.2833 59.0575 71.0646 58.5739C71.6875 58.1842 72.1203 57.9635 72.1203 57.9635C72.1203 57.9635 72.1203 58.1003 72.1203 58.3424C72.1203 58.5846 72.057 58.9106 71.9831 59.3318C71.82 60.349 71.5328 61.3422 71.1279 62.2893Z" fill="#F49100" />
    <path d="M79.9326 65.1321C79.3361 65.1252 78.749 64.982 78.2165 64.714C77.6839 64.4454 77.2201 64.0594 76.8605 63.5846C77.1413 63.089 77.52 62.6551 77.9736 62.3095C78.4273 61.964 78.9464 61.7136 79.4998 61.5736C80.6945 61.2552 81.9263 61.0956 83.1631 61.1001C84.4194 61.1001 85.6757 61.1001 86.6152 61.1001H88.1882C88.1882 61.1001 88.0721 61.2369 87.8609 61.4475C87.6498 61.6581 87.3225 61.9425 86.9213 62.2686C85.9559 63.0618 84.8913 63.7271 83.7543 64.2474C82.5662 64.8332 81.258 65.1359 79.9326 65.1321Z" fill="#F49100" />
    <path d="M77.5463 60.3213C77.2189 60.7702 76.7856 61.1322 76.2848 61.3744C75.784 61.6171 75.231 61.7325 74.6748 61.7111C74.2354 60.6536 74.2091 59.4706 74.6009 58.3954C74.9758 57.4073 75.5029 56.4841 76.1633 55.6586C76.765 54.8376 77.3773 54.1319 77.8207 53.6376C78.0424 53.374 78.2325 53.1741 78.3592 53.0372L78.5597 52.8266C78.5597 52.8266 78.5597 52.9534 78.6652 53.1741C78.7449 53.49 78.8083 53.8097 78.8553 54.132C79.0108 55.1403 79.0108 56.1663 78.8553 57.174C78.6899 58.316 78.2398 59.3981 77.5463 60.3213Z" fill="#F49100" />
    <path d="M92.6009 51.553C93.4666 51.2793 94.0366 51.1214 94.0366 51.1214C94.0366 51.1214 93.9839 51.2688 93.8677 51.5109C93.7516 51.753 93.5721 52.0793 93.3504 52.4793C93.1288 52.8796 92.8543 53.3424 92.5375 53.8267C92.3792 54.0689 92.2103 54.311 92.0308 54.5633L91.8936 54.7531L91.7141 54.9845L91.3446 55.448C90.4327 56.5938 89.2193 57.4653 87.8397 57.9635C87.2684 58.1734 86.6535 58.2384 86.0508 58.152C85.448 58.0656 84.8764 57.831 84.3876 57.4691C84.6694 56.3441 85.3476 55.3578 86.2984 54.69C86.52 54.5109 86.7734 54.3426 87.0268 54.1635L87.8291 53.6584L88.6843 53.1633C88.9482 53.0164 89.2227 52.8796 89.4972 52.7528C90.5036 52.2841 91.5405 51.8832 92.6009 51.553Z" fill="#F49100" />
    <path d="M84.0913 53.7214C83.9479 54.2536 83.6635 54.7379 83.2679 55.1232C82.8723 55.5085 82.38 55.7803 81.8427 55.9108C81.146 55.0293 80.7502 53.9484 80.7131 52.8266C80.6852 51.8927 80.7489 50.9585 80.9032 50.0371C80.9667 49.5706 81.0655 49.1096 81.1987 48.6581C81.336 48.1949 81.4732 47.7738 81.6104 47.4265C81.7477 47.0791 81.8638 46.7844 81.9483 46.5844L82.0644 46.2686L82.2861 46.5844C82.4234 46.7949 82.5923 47.0897 82.7823 47.458C83.2729 48.3944 83.6656 49.3785 83.9541 50.3949C84.028 50.6791 84.1019 50.9739 84.1653 51.2686C84.2202 51.5468 84.259 51.828 84.2814 52.1107C84.3078 52.3908 84.3078 52.6727 84.2814 52.9527C84.2424 53.2144 84.1787 53.4717 84.0913 53.7214Z" fill="#F49100" />
    <path d="M93.9312 47.2368C93.7246 47.4759 93.4986 47.6978 93.2555 47.8999C93.0269 48.0972 92.7833 48.2767 92.5271 48.4367C92.0483 48.7853 91.4967 49.0213 90.9134 49.1271C90.3302 49.2328 89.7306 49.2055 89.1594 49.0473C89.0594 48.4855 89.0956 47.908 89.2649 47.3631C89.3432 47.105 89.4531 46.8574 89.5922 46.6262C89.7299 46.386 89.8815 46.1541 90.0462 45.9315C90.8028 44.9833 91.7169 44.1715 92.7488 43.5314C93.6573 42.892 94.602 42.305 95.578 41.7735L96.9082 41.0577C96.9082 41.0577 96.9082 41.2156 96.8238 41.4788C96.7393 41.742 96.6443 42.1104 96.486 42.5314C96.1469 43.64 95.668 44.7011 95.0607 45.6893C94.7232 46.2324 94.3456 46.7496 93.9312 47.2368Z" fill="#F49100" />
    <path d="M87.3223 46.7948C87.0854 47.2937 86.7214 47.722 86.2667 48.0369C85.2522 47.4701 84.4959 46.5351 84.1553 45.4264C84.0711 45.1679 84.0041 44.9041 83.9547 44.6369L83.8913 44.2369C83.8913 44.1106 83.8913 43.9738 83.828 43.8369C83.7651 43.299 83.7439 42.757 83.7646 42.2158C83.7999 41.2993 83.8881 40.3855 84.0286 39.479C84.0919 39.1211 84.1553 38.8263 84.1975 38.6264C84.2397 38.4263 84.2609 38.3106 84.2609 38.3106L84.5248 38.5737C84.7599 38.8069 84.9819 39.0529 85.1898 39.3106C85.8448 40.1105 86.4111 40.9787 86.879 41.9C87.3945 42.9386 87.6721 44.0783 87.6919 45.2369C87.6893 45.5103 87.6538 45.7824 87.5863 46.0474C87.5267 46.3056 87.4381 46.5564 87.3223 46.7948Z" fill="#F49100" />
    <path d="M96.0634 37.2369C95.9156 37.5163 95.7461 37.7837 95.5566 38.0368C95.3656 38.2827 95.1575 38.5149 94.9338 38.7316C94.5297 39.156 94.0356 39.4849 93.4876 39.6943C92.9397 39.9037 92.3517 39.9884 91.7667 39.9421C91.5572 39.4142 91.481 38.8431 91.545 38.279C91.5773 38.0103 91.6374 37.7458 91.7244 37.4895C91.7921 37.2234 91.8804 36.963 91.9884 36.7105C92.2427 36.1778 92.558 35.6762 92.9279 35.2158L93.4981 34.5C93.6881 34.2579 93.8992 34.0263 94.0998 33.7947C94.9338 32.8895 95.8417 32.0474 96.4856 31.4263C97.1296 30.8052 97.6047 30.3947 97.6047 30.3947C97.6047 30.3947 97.6047 31.0263 97.6047 31.9736C97.5554 32.5177 97.4779 33.0587 97.3724 33.5947C97.3091 33.8895 97.2458 34.1947 97.1718 34.5C97.1035 34.814 97.0153 35.1233 96.9079 35.4263C96.6686 36.0485 96.3864 36.6535 96.0634 37.2369Z" fill="#F49100" />
    <path d="M88.7262 39.2579C87.6448 38.8963 86.7376 38.1457 86.1819 37.1526C86.0468 36.9237 85.9304 36.6843 85.8336 36.4368C85.7127 36.1944 85.607 35.9448 85.5168 35.6895C85.3506 35.1985 85.2236 34.6951 85.1367 34.1842C85.0418 33.6894 84.9362 33.2053 84.8834 32.7631C84.8834 32.5315 84.8834 32.321 84.8201 32.121C84.7568 31.921 84.8201 31.7316 84.8201 31.5526C84.7619 31.1691 84.7267 30.7824 84.7145 30.3947C84.7145 30.3947 85.179 30.6578 85.8441 31.1315L86.3825 31.5315C86.5725 31.6894 86.7626 31.8473 86.9526 32.0263C87.3648 32.3942 87.7494 32.7917 88.1033 33.2158C88.2827 33.4368 88.4622 33.6684 88.6311 33.9105L88.8634 34.2789L89.064 34.6684C89.3155 35.1722 89.5 35.7065 89.6129 36.2579C89.6718 36.524 89.7001 36.7959 89.6974 37.0684C89.6818 37.3317 89.6393 37.5927 89.5707 37.8474C89.4189 38.3836 89.1275 38.8702 88.7262 39.2579Z" fill="#F49100" />
    <path d="M93.1175 24.0789C93.4025 23.5315 93.7086 23.0262 94.0042 22.5104L94.8171 21.1946C95.2922 20.4262 95.6405 19.9315 95.6405 19.9315C95.6405 19.9315 95.82 20.5315 96.0101 21.4578C96.0734 21.9315 96.1473 22.5104 96.1895 23.0894C96.1895 23.3841 96.1895 23.6999 96.1895 24.0157C96.1895 24.3315 96.1895 24.6578 96.1895 24.9841C96.1381 25.6374 96.0321 26.2853 95.8728 26.921C95.7067 27.5308 95.4581 28.1151 95.1338 28.6579C94.8423 29.1649 94.4372 29.5979 93.95 29.923C93.4629 30.2481 92.907 30.4563 92.3257 30.5316C92.1676 30.2921 92.0399 30.034 91.9456 29.7631C91.8459 29.5087 91.775 29.2438 91.7345 28.9736C91.6535 28.4336 91.6786 27.8831 91.8083 27.3526C91.9292 26.7836 92.1024 26.2268 92.3257 25.6894C92.5579 25.1315 92.843 24.5631 93.1175 24.0789Z" fill="#F49100" />
    <path d="M86.2872 28.8368C85.9137 28.4717 85.5874 28.0615 85.316 27.6157C85.0195 27.1977 84.7615 26.7538 84.5453 26.2894C84.4292 26.0683 84.3447 25.8473 84.2392 25.6367L83.9647 25.0052C83.7957 24.5946 83.669 24.2157 83.5529 23.8894C83.3101 23.2473 83.194 22.8368 83.194 22.8368C83.6339 22.9503 84.0674 23.0873 84.4925 23.2473C85.4429 23.6034 86.3412 24.0849 87.1634 24.6789C87.4036 24.8428 87.6329 25.022 87.8496 25.2157C88.0607 25.4087 88.2616 25.6124 88.4514 25.8262C88.8302 26.2495 89.1466 26.7245 89.391 27.2368C89.6071 27.7204 89.7186 28.2441 89.7182 28.7736C89.7254 29.0372 89.6898 29.3003 89.6127 29.5526C89.5258 29.8227 89.4052 30.0809 89.2537 30.321C88.121 30.1881 87.0711 29.6629 86.2872 28.8368Z" fill="#F49100" />
    <path d="M89.9934 20.6895C89.8286 20.4752 89.6903 20.242 89.5816 19.9947C89.4774 19.7511 89.3995 19.497 89.3494 19.2368C89.3494 18.9737 89.2755 18.7 89.2438 18.4262C89.2097 17.8526 89.2416 17.2769 89.3389 16.7104C89.4193 16.1041 89.5356 15.503 89.6873 14.9105C89.9934 13.7104 90.3206 12.5841 90.6268 11.7525C90.9329 10.9209 91.123 10.2893 91.123 10.2893C91.123 10.2893 91.2074 10.4262 91.3341 10.6578C91.4608 10.8893 91.6298 11.2473 91.8303 11.7104C92.3083 12.7681 92.6625 13.8772 92.886 15.0157C92.9908 15.6458 93.0508 16.2825 93.0655 16.921C93.0618 17.2381 93.0372 17.5546 92.9916 17.8683C92.9421 18.1702 92.8751 18.469 92.791 18.7631C92.6376 19.3238 92.3638 19.8446 91.9887 20.2895C91.6049 20.7535 91.1115 21.1152 90.5529 21.3421C90.3375 21.1509 90.1492 20.9313 89.9934 20.6895Z" fill="#F49100" />
    <path d="M79.9849 16.121C79.8688 15.9526 79.816 15.8579 79.816 15.8579H80.1855C80.4389 15.8579 80.7661 15.8579 81.1673 15.9421C81.5684 16.0263 82.0435 16.0684 82.5502 16.1842C82.8036 16.2368 83.0676 16.3105 83.3315 16.3842C83.5954 16.4579 83.8487 16.5631 84.1127 16.6684C84.6528 16.8727 85.1695 17.1338 85.654 17.4473C86.1168 17.7425 86.5391 18.0963 86.9103 18.5C87.0811 18.7027 87.2264 18.9253 87.3431 19.1631C87.4575 19.396 87.5494 19.6392 87.6176 19.8895C87.6897 20.1428 87.7252 20.4051 87.7232 20.6684C87.7001 20.9504 87.647 21.2292 87.5648 21.5C86.9896 21.6116 86.3981 21.6116 85.8229 21.5C85.2979 21.38 84.7929 21.185 84.3238 20.921C84.1021 20.7842 83.8804 20.6474 83.6693 20.4895L83.3737 20.2474L83.0676 19.9948C82.686 19.6747 82.3328 19.3225 82.0118 18.9421C81.6949 18.6097 81.3987 18.2581 81.1251 17.8895L80.935 17.6158L80.7555 17.3737C80.6289 17.2053 80.5233 17.0474 80.4283 16.9105C80.3333 16.7737 80.0799 16.3 79.9849 16.121Z" fill="#F49100" />
    <path d="M86.5516 12.9419C86.0526 12.699 85.6212 12.3375 85.2953 11.8893C84.9686 11.4624 84.7283 10.9762 84.588 10.4577C84.0136 8.24652 84.1656 5.89705 84.3663 3.64711C84.4613 2.77342 84.5563 2.18394 84.5563 2.18394C84.9835 2.51521 85.3067 2.89975 85.6226 3.34184C85.9427 3.75993 86.2387 4.19567 86.5094 4.64712C86.8246 5.17297 87.1067 5.71787 87.3539 6.27872C87.6049 6.86442 87.8061 7.47005 87.9557 8.08929C88.0808 8.69132 88.1305 9.3066 88.1035 9.92086C88.0887 10.5083 87.9415 11.0848 87.6729 11.6078C87.4043 12.1307 87.021 12.5867 86.5516 12.9419Z" fill="#F49100" />
    <path d="M77.684 12.3102C77.2723 12.0049 76.8922 11.7101 76.5544 11.4154C76.2166 11.1207 75.8998 10.8364 75.6571 10.5944C75.4142 10.3523 75.1926 10.1417 75.0553 9.99435L74.8336 9.76279C75.2803 9.67293 75.7313 9.60622 76.1849 9.56277C76.6374 9.51869 77.0922 9.5011 77.5468 9.51018C78.0983 9.50627 78.6492 9.54858 79.1936 9.63649C80.3311 9.76822 81.4187 10.1767 82.3607 10.8259C82.7866 11.1463 83.1453 11.5468 83.4164 12.0049C83.6554 12.4846 83.768 13.0172 83.7437 13.5523C82.7018 14.0016 81.5324 14.0614 80.4499 13.7207C79.9423 13.5739 79.4534 13.3691 78.993 13.1102C78.5371 12.8767 78.0995 12.6093 77.684 12.3102Z" fill="#F49100" />
    <path d="M81.0548 7.5145C80.4338 7.5145 79.4646 7.57134 78.6759 7.02621C78.4621 6.86989 78.2577 6.7012 78.0637 6.52092C77.8606 6.3412 77.6701 6.14773 77.4936 5.94196C77.1124 5.53132 76.7596 5.0952 76.4379 4.63669C75.8256 3.73147 75.2977 2.79459 74.9177 2.08933C74.7276 1.74194 74.5949 1.43684 74.4894 1.22634L74.4179 1.04653L74.3793 0.920898L74.8712 0.955384C75.1985 0.998517 75.39 1.02728 75.7095 1.11039C76.7181 1.36566 77.69 1.74767 78.6021 2.24723C79.6557 2.79087 80.5669 3.57319 81.2624 4.53144C81.5851 4.98674 81.8016 5.50824 81.8958 6.0578C82.0009 6.51858 81.998 6.98107 81.8958 7.45779" fill="#F49100" />
</g>
<defs>
    <clipPath id="clip0_25469_11129">
        <rect width="97.3375" height="69.4191" fill="white" transform="translate(0.265625 0.920898)" />
    </clipPath>
    <clipPath id="clip1_25469_11129">
        <rect width="33.8" height="33.8" fill="white" transform="translate(32.0312 18.7305)" />
    </clipPath>
</defs>
</svg>