<svg width="25" height="25" viewBox="0 0 25 25" fill="none" xmlns="http://www.w3.org/2000/svg">
<g id="vuesax/bold/heart">
<g id="heart">
<path id="Vector" d="M12.6552 6.57919L12.0547 7.38188L11.4542 6.57919C10.5791 5.4095 9.17733 4.6499 7.61469 4.6499C4.9624 4.6499 2.80469 6.81061 2.80469 9.4899C2.80469 10.5983 2.9814 11.6205 3.28829 12.569L3.28983 12.5739C4.02613 14.904 5.53818 16.7906 7.18228 18.2036C8.82969 19.6194 10.5666 20.5223 11.6763 20.8999L11.6763 20.8998L11.6843 20.9027C11.7491 20.9255 11.8833 20.9499 12.0547 20.9499C12.2261 20.9499 12.3603 20.9255 12.4251 20.9027L12.4251 20.9026L12.4331 20.8999C13.5428 20.5223 15.2797 19.6194 16.9271 18.2036C18.5712 16.7906 20.0832 14.904 20.8195 12.5739L20.8195 12.5739L20.8211 12.569C21.128 11.6205 21.3047 10.5983 21.3047 9.4899C21.3047 6.81061 19.147 4.6499 16.4947 4.6499C14.932 4.6499 13.5303 5.4095 12.6552 6.57919Z" fill="#16476D" stroke="#16476D" stroke-width="1.5"/>
</g>
</g>
</svg>
