<svg width="24" height="24" viewBox="0 0 24 24" fill="none" xmlns="http://www.w3.org/2000/svg">
<g id="vuesax/bold/home-2">
<g id="home-2">
<path id="Vector" d="M13.8518 3.40442L13.8522 3.40471L19.6121 7.43461C20.0409 7.73479 20.4612 8.23894 20.7748 8.83977C21.0885 9.44059 21.2622 10.0741 21.2622 10.6002V17.3802C21.2622 19.516 19.528 21.2502 17.3922 21.2502H6.61219C4.47851 21.2502 2.74219 19.5081 2.74219 17.3702V10.4702C2.74219 9.98352 2.89902 9.38241 3.18505 8.80148C3.47088 8.22096 3.85379 7.7255 4.24346 7.42156L4.24362 7.42143L9.25155 3.51304C9.25189 3.51278 9.25223 3.51252 9.25256 3.51226C10.5028 2.54433 12.5514 2.4933 13.8518 3.40442ZM12.0022 19.5002C12.8264 19.5002 13.5022 18.8244 13.5022 18.0002V15.0002C13.5022 14.176 12.8264 13.5002 12.0022 13.5002C11.178 13.5002 10.5022 14.176 10.5022 15.0002V18.0002C10.5022 18.8244 11.178 19.5002 12.0022 19.5002Z" fill="white" stroke="white" stroke-width="1.5"/>
</g>
</g>
</svg>
