<svg width="25" height="25" viewBox="0 0 25 25" fill="none" xmlns="http://www.w3.org/2000/svg">
<g id="Instagram">
    <path id="Combined-Shape" fill-rule="evenodd" clip-rule="evenodd" d="M12.2891 0.333008C5.66165 0.333008 0.289062 5.70559 0.289062 12.333C0.289062 18.9604 5.66165 24.333 12.2891 24.333C18.9165 24.333 24.2891 18.9604 24.2891 12.333C24.2891 5.70559 18.9165 0.333008 12.2891 0.333008ZM9.65068 5.97177C10.3334 5.94071 10.5515 5.93311 12.2896 5.93311H12.2876C14.0263 5.93311 14.2437 5.94071 14.9263 5.97177C15.6077 6.00297 16.073 6.11084 16.481 6.26911C16.9024 6.43244 17.2584 6.65111 17.6144 7.00712C17.9704 7.36285 18.189 7.71992 18.353 8.14086C18.5104 8.5478 18.6184 9.01287 18.6504 9.69421C18.681 10.3769 18.689 10.595 18.689 12.3332C18.689 14.0713 18.681 14.2889 18.6504 14.9716C18.6184 15.6527 18.5104 16.1179 18.353 16.5249C18.189 16.9458 17.9704 17.3028 17.6144 17.6586C17.2588 18.0146 16.9022 18.2338 16.4814 18.3972C16.0742 18.5555 15.6086 18.6634 14.9273 18.6946C14.2446 18.7256 14.0271 18.7332 12.2888 18.7332C10.5508 18.7332 10.3328 18.7256 9.65014 18.6946C8.96894 18.6634 8.50373 18.5555 8.09653 18.3972C7.67586 18.2338 7.31879 18.0146 6.96318 17.6586C6.60731 17.3028 6.38864 16.9458 6.22504 16.5248C6.06691 16.1179 5.95904 15.6528 5.92771 14.9715C5.89677 14.2888 5.88904 14.0713 5.88904 12.3332C5.88904 10.595 5.89704 10.3768 5.92757 9.69408C5.95824 9.013 6.06624 8.5478 6.22491 8.14073C6.38891 7.71992 6.60758 7.36285 6.96358 7.00712C7.31932 6.65125 7.67639 6.43258 8.09733 6.26911C8.50426 6.11084 8.96934 6.00297 9.65068 5.97177Z" fill="white" />
    <path id="Combined-Shape_2" fill-rule="evenodd" clip-rule="evenodd" d="M11.7195 7.08656C11.8309 7.08639 11.9509 7.08644 12.0803 7.0865L12.2936 7.08656C14.0024 7.08656 14.2049 7.09269 14.8798 7.12336C15.5038 7.15189 15.8424 7.25616 16.068 7.34376C16.3667 7.45976 16.5796 7.59843 16.8035 7.82244C17.0275 8.04644 17.1662 8.25977 17.2824 8.55844C17.37 8.78378 17.4745 9.12245 17.5029 9.74646C17.5335 10.4211 17.5402 10.6238 17.5402 12.3318C17.5402 14.0398 17.5335 14.2425 17.5029 14.9172C17.4743 15.5412 17.37 15.8799 17.2824 16.1052C17.1664 16.4039 17.0275 16.6165 16.8035 16.8404C16.5795 17.0644 16.3668 17.2031 16.068 17.3191C15.8427 17.4071 15.5038 17.5111 14.8798 17.5396C14.2051 17.5703 14.0024 17.5769 12.2936 17.5769C10.5846 17.5769 10.3821 17.5703 9.70744 17.5396C9.08343 17.5108 8.74476 17.4065 8.51902 17.3189C8.22035 17.2029 8.00702 17.0643 7.78302 16.8403C7.55901 16.6163 7.42035 16.4035 7.30408 16.1047C7.21648 15.8793 7.11208 15.5406 7.08368 14.9166C7.05301 14.242 7.04688 14.0393 7.04688 12.3302C7.04688 10.6211 7.05301 10.4195 7.08368 9.74486C7.11221 9.12085 7.21648 8.78218 7.30408 8.55658C7.42008 8.25791 7.55901 8.04457 7.78302 7.82057C8.00702 7.59657 8.22035 7.4579 8.51902 7.34163C8.74463 7.25363 9.08343 7.14963 9.70744 7.12096C10.2978 7.09429 10.5266 7.08629 11.7195 7.08496V7.08656ZM15.7099 8.14919C15.2859 8.14919 14.9419 8.4928 14.9419 8.91693C14.9419 9.34094 15.2859 9.68494 15.7099 9.68494C16.1339 9.68494 16.4779 9.34094 16.4779 8.91693C16.4779 8.49293 16.1339 8.14893 15.7099 8.14893V8.14919ZM9.00684 12.3331C9.00684 10.518 10.4784 9.04646 12.2934 9.04639C14.1085 9.04639 15.5797 10.518 15.5797 12.3331C15.5797 14.1482 14.1086 15.6191 12.2935 15.6191C10.4785 15.6191 9.00684 14.1482 9.00684 12.3331Z" fill="white" />
    <path id="Shape" d="M12.2896 10.1992C13.4678 10.1992 14.423 11.1543 14.423 12.3326C14.423 13.5107 13.4678 14.4659 12.2896 14.4659C11.1113 14.4659 10.1562 13.5107 10.1562 12.3326C10.1562 11.1543 11.1113 10.1992 12.2896 10.1992Z" fill="white" />
</g>
</svg>