<svg width="24" height="24" viewBox="0 0 24 24" fill="none" xmlns="http://www.w3.org/2000/svg">
<path d="M16.9878 9.71045H7.00781C6.59781 9.71045 6.25781 9.37045 6.25781 8.96045C6.25781 8.55045 6.59781 8.21045 7.00781 8.21045H16.9878C17.3978 8.21045 17.7378 8.55045 17.7378 8.96045C17.7378 9.37045 17.3978 9.71045 16.9878 9.71045Z" fill="white"/>
<path d="M12 9.71027C11.59 9.71027 11.25 9.37027 11.25 8.96027V7.28027C11.25 6.87027 11.59 6.53027 12 6.53027C12.41 6.53027 12.75 6.87027 12.75 7.28027V8.96027C12.75 9.37027 12.41 9.71027 12 9.71027Z" fill="white"/>
<path d="M7 17.4699C6.59 17.4699 6.25 17.1299 6.25 16.7199C6.25 16.3099 6.59 15.9699 7 15.9699C10.72 15.9699 13.75 12.8199 13.75 8.93994C13.75 8.52994 14.09 8.18994 14.5 8.18994C14.91 8.18994 15.25 8.52994 15.25 8.93994C15.25 13.6499 11.55 17.4699 7 17.4699Z" fill="white"/>
<path d="M17.0012 17.4702C15.0312 17.4702 13.2012 16.4903 11.8612 14.7003C11.6112 14.3703 11.6812 13.9003 12.0112 13.6503C12.3412 13.4003 12.8112 13.4702 13.0612 13.8002C14.1212 15.2002 15.5212 15.9702 17.0112 15.9702C17.4212 15.9702 17.7612 16.3102 17.7612 16.7202C17.7612 17.1302 17.4112 17.4702 17.0012 17.4702Z" fill="white"/>
<path d="M15 22.7495H9C3.57 22.7495 1.25 20.4295 1.25 14.9995V8.99951C1.25 3.56951 3.57 1.24951 9 1.24951H15C20.43 1.24951 22.75 3.56951 22.75 8.99951V14.9995C22.75 20.4295 20.43 22.7495 15 22.7495ZM9 2.74951C4.39 2.74951 2.75 4.38951 2.75 8.99951V14.9995C2.75 19.6095 4.39 21.2495 9 21.2495H15C19.61 21.2495 21.25 19.6095 21.25 14.9995V8.99951C21.25 4.38951 19.61 2.74951 15 2.74951H9Z" fill="white"/>
</svg>
