<svg width="48" height="48" viewBox="0 0 48 48" fill="none" xmlns="http://www.w3.org/2000/svg">
<g id="vuesax/bulk/location">
<g id="location">
<path id="Vector" opacity="0.4" d="M41.2343 16.9C39.1343 7.66 31.0743 3.5 23.9943 3.5C23.9943 3.5 23.9943 3.5 23.9743 3.5C16.9143 3.5 8.83433 7.64 6.73433 16.88C4.39433 27.2 10.7143 35.94 16.4343 41.44C18.5543 43.48 21.2743 44.5 23.9943 44.5C26.7143 44.5 29.4343 43.48 31.5343 41.44C37.2543 35.94 43.5743 27.22 41.2343 16.9Z" fill="#16476D"/>
<path id="Vector_2" d="M23.9953 26.9203C27.4747 26.9203 30.2953 24.0997 30.2953 20.6203C30.2953 17.1409 27.4747 14.3203 23.9953 14.3203C20.5159 14.3203 17.6953 17.1409 17.6953 20.6203C17.6953 24.0997 20.5159 26.9203 23.9953 26.9203Z" fill="#16476D"/>
</g>
</g>
</svg>
