<svg width="23" height="23" viewBox="0 0 23 23" fill="none" xmlns="http://www.w3.org/2000/svg">
<path d="M11.4978 13.5798C9.45656 13.5798 7.78906 11.9219 7.78906 9.87104C7.78906 7.82021 9.45656 6.17188 11.4978 6.17188C13.5391 6.17188 15.2066 7.82979 15.2066 9.88063C15.2066 11.9315 13.5391 13.5798 11.4978 13.5798ZM11.4978 7.60938C10.252 7.60938 9.22656 8.62521 9.22656 9.88063C9.22656 11.136 10.2424 12.1519 11.4978 12.1519C12.7532 12.1519 13.7691 11.136 13.7691 9.88063C13.7691 8.62521 12.7436 7.60938 11.4978 7.60938Z" fill="white"/>
<path d="M11.5016 21.812C10.0832 21.812 8.65532 21.2753 7.54366 20.2116C4.71657 17.4899 1.59241 13.1487 2.77116 7.98324C3.83491 3.29699 7.92699 1.19824 11.5016 1.19824C11.5016 1.19824 11.5016 1.19824 11.5112 1.19824C15.0857 1.19824 19.1778 3.29699 20.2416 7.99283C21.4107 13.1582 18.2866 17.4899 15.4595 20.2116C14.3478 21.2753 12.9199 21.812 11.5016 21.812ZM11.5016 2.63574C8.71282 2.63574 5.12866 4.12116 4.17991 8.29949C3.14491 12.8132 5.98157 16.7041 8.54991 19.167C10.2078 20.7674 12.8049 20.7674 14.4628 19.167C17.0216 16.7041 19.8582 12.8132 18.8424 8.29949C17.8841 4.12116 14.2903 2.63574 11.5016 2.63574Z" fill="white"/>
</svg>
