<svg width="155" height="40" viewBox="0 0 155 40" fill="none" xmlns="http://www.w3.org/2000/svg">
<path d="M22.0046 13.458C14.8477 13.458 9.04688 19.259 9.04688 26.4152C9.04688 33.5713 14.8477 39.373 22.0046 39.373C29.1606 39.373 34.9621 33.5713 34.9621 26.4152C34.9621 19.259 29.1606 13.458 22.0046 13.458Z" fill="#F49100"/>
<path d="M62.1845 22.5055C59.0106 22.5055 56.4367 19.9317 56.4367 16.7581C56.4367 13.5837 59.0106 11.01 62.1845 11.01C65.3591 11.01 67.9329 13.5837 67.9329 16.7581C67.9329 19.9317 65.3591 22.5055 62.1845 22.5055ZM67.1708 7.05953C66.1796 8.78848 64.3199 9.95611 62.1845 9.95611C60.0491 9.95611 58.1895 8.78848 57.1987 7.05953C53.6842 8.87061 51.2794 12.5327 51.2794 16.7581C51.2794 18.8674 51.8802 20.8369 52.9181 22.5055H43.8566C42.0085 12.1066 32.9294 4.20812 21.9991 4.20812C11.544 4.20812 2.78209 11.4346 0.421875 21.1639C2.32315 22.635 4.57814 23.67 7.03863 24.1193C8.14462 16.8509 14.4213 11.2818 21.9991 11.2818C30.3575 11.2818 37.1336 18.0573 37.1336 26.4157C37.1336 30.478 35.5291 34.1649 32.9242 36.883C34.8174 38.4147 37.0809 39.5059 39.5611 40C42.2326 36.5518 43.9108 32.2977 44.168 27.6634H62.1845C68.2076 27.6634 73.0902 22.7803 73.0902 16.7581C73.0902 12.5327 70.6847 8.87061 67.1708 7.05953Z" fill="white"/>
<path d="M62.1799 8.4541C64.5147 8.4541 66.4067 6.56156 66.4067 4.22729C66.4067 1.89244 64.5147 -0.00026989 62.1799 -0.00026989C59.8449 -0.00026989 57.9531 1.89244 57.9531 4.22729C57.9531 6.56156 59.8449 8.4541 62.1799 8.4541Z" fill="#F49100"/>
<path d="M82.0499 2.88193L82.0453 20.3485C82.0431 20.5159 82.1015 20.6735 82.2208 20.8207C82.3398 20.9675 82.4667 21.041 82.6026 21.041H87.5231L87.5264 12.1113H93.2715L93.2624 8.31517C93.2684 8.18946 93.2234 8.06903 93.1289 7.95382C93.0313 7.8281 92.9301 7.76461 92.8266 7.76461H87.5236L87.529 4.33124H94.5877L94.5834 0.55221C94.586 0.415325 94.5398 0.288853 94.4453 0.173214C94.3504 0.0574913 94.2472 -0.00012207 94.1354 -0.00012207H80.1254C80.0697 -0.00012207 80.0314 0.0212955 80.0115 0.0629482C79.9933 0.115856 79.9967 0.173214 80.0219 0.236786C80.2012 0.78256 80.508 1.32867 80.9419 1.87378C81.2993 2.31567 81.6689 2.6515 82.0499 2.88193Z" fill="white"/>
<path d="M95.3365 21.041H100.329L101.271 16.3005H107.1L107.747 19.2774C107.843 19.7497 108.061 20.1596 108.402 20.5055C108.752 20.8625 109.108 21.041 109.466 21.041H114.829L114.831 18.5682H113.242C113.106 18.5682 112.973 18.5001 112.84 18.3634C112.71 18.2371 112.628 18.0799 112.593 17.8922L110.073 6.25199H105.069C104.973 6.25199 104.939 6.31556 104.965 6.44153L106.158 11.9699H102.133L103.519 5.02389C103.609 4.5621 103.858 4.33124 104.264 4.33124H108.791C110.606 4.33124 111.514 3.00362 111.514 0.346294C111.515 0.262735 111.485 0.183876 111.426 0.110144C111.366 0.0368309 111.301 -0.00012207 111.229 -0.00012207H101.28C99.822 -0.00012207 98.9313 0.814222 98.6061 2.44105L95.0063 20.5686C94.9861 20.6738 95.0146 20.779 95.091 20.884C95.1589 20.9889 95.2405 21.041 95.3365 21.041Z" fill="white"/>
<path d="M118.936 2.6772L118.939 20.3485C118.936 20.5159 118.995 20.6738 119.114 20.8207C119.233 20.9675 119.36 21.041 119.496 21.041H123.867L123.873 8.80418L128.612 19.1522C128.869 19.718 129.211 20.1745 129.639 20.5216C130.067 20.8673 130.5 21.041 130.938 21.041H134.82L134.823 0.693293C134.818 0.525002 134.759 0.367962 134.648 0.220076C134.528 0.0731964 134.401 -0.00012207 134.265 -0.00012207H129.882L129.881 12.0794L124.708 0.788271C124.471 0.262735 124.145 -0.00012207 123.731 -0.00012207H117.234C117.186 -0.00012207 117.152 0.0212936 117.132 0.0639553C117.11 0.104853 117.113 0.157763 117.138 0.220076C117.449 1.16542 118.048 1.98454 118.936 2.6772Z" fill="white"/>
<path d="M139.115 2.6772L139.118 20.3485C139.115 20.5159 139.174 20.6738 139.293 20.8207C139.412 20.9675 139.54 21.041 139.675 21.041H144.047L144.053 8.80418L148.791 19.1522C149.048 19.718 149.391 20.1745 149.818 20.5216C150.246 20.8673 150.679 21.041 151.117 21.041H154.999L155.002 0.693293C154.997 0.525002 154.938 0.367962 154.827 0.220076C154.708 0.0731964 154.58 -0.00012207 154.445 -0.00012207H150.061L150.061 12.0794L144.888 0.788271C144.65 0.262735 144.324 -0.00012207 143.911 -0.00012207H137.413C137.365 -0.00012207 137.331 0.0212936 137.311 0.0639553C137.29 0.104853 137.292 0.157763 137.317 0.220076C137.628 1.16542 138.227 1.98454 139.115 2.6772Z" fill="white"/>
</svg>
