<svg width="24" height="25" viewBox="0 0 24 25" fill="none" xmlns="http://www.w3.org/2000/svg">
<g id="vuesax/outline/messages-2">
    <g id="messages-2">
        <path id="Vector" d="M17.8681 22.2028C17.5581 22.2028 17.2481 22.1228 16.9681 21.9528L12.9581 19.5728C12.5381 19.5628 12.1181 19.5328 11.7181 19.4728C11.4481 19.4328 11.2181 19.2527 11.1181 18.9927C11.0181 18.7327 11.0681 18.4527 11.2481 18.2427C11.9081 17.4727 12.2481 16.5528 12.2481 15.5728C12.2481 13.1528 10.1181 11.1827 7.49812 11.1827C6.51812 11.1827 5.57812 11.4528 4.78812 11.9728C4.56812 12.1128 4.29812 12.1328 4.05812 12.0228C3.82812 11.9128 3.65813 11.6927 3.62813 11.4327C3.59813 11.1527 3.57812 10.8728 3.57812 10.5828C3.57812 5.62276 7.87813 1.59277 13.1581 1.59277C18.4381 1.59277 22.7381 5.62276 22.7381 10.5828C22.7381 13.3028 21.4781 15.8028 19.2581 17.5128L19.5981 20.2328C19.6781 20.9128 19.3781 21.5528 18.8081 21.9228C18.5281 22.1028 18.1981 22.2028 17.8681 22.2028ZM13.1481 18.0627C13.2881 18.0527 13.4281 18.0928 13.5481 18.1728L17.7381 20.6628C17.8481 20.7328 17.9381 20.7028 17.9981 20.6628C18.0481 20.6328 18.1281 20.5528 18.1081 20.4128L17.7181 17.2527C17.6881 16.9727 17.8081 16.7028 18.0281 16.5428C20.0681 15.1128 21.2381 12.9327 21.2381 10.5627C21.2381 6.43274 17.6181 3.07275 13.1581 3.07275C8.86813 3.07275 5.34812 6.19279 5.08812 10.1128C5.83812 9.82279 6.64813 9.66278 7.48813 9.66278C10.9381 9.66278 13.7381 12.3027 13.7381 15.5527C13.7481 16.4327 13.5381 17.2827 13.1481 18.0627Z" fill="white" />
        <path id="Vector_2" d="M4.57782 23.0828C4.31782 23.0828 4.06781 23.0129 3.83781 22.8629C3.38781 22.5729 3.14782 22.0728 3.20782 21.5428L3.40782 20.0028C2.05782 18.9028 1.25781 17.2728 1.25781 15.5628C1.25781 13.6128 2.27782 11.7928 3.98782 10.7028C5.01782 10.0328 6.23781 9.67285 7.50781 9.67285C10.9578 9.67285 13.7578 12.3128 13.7578 15.5628C13.7578 16.8828 13.2778 18.1828 12.3978 19.2128C11.2678 20.5828 9.57782 21.3828 7.71782 21.4428L5.27782 22.8928C5.05782 23.0228 4.81782 23.0828 4.57782 23.0828ZM7.49782 11.1729C6.51782 11.1729 5.57781 11.4428 4.78781 11.9628C3.50781 12.7828 2.74782 14.1228 2.74782 15.5628C2.74782 16.9528 3.42782 18.2228 4.62782 19.0428C4.85782 19.2028 4.97781 19.4728 4.94781 19.7528L4.72781 21.4628L7.11781 20.0428C7.23781 19.9728 7.36782 19.9328 7.49782 19.9328C8.96782 19.9328 10.3578 19.3028 11.2378 18.2328C11.8978 17.4528 12.2478 16.5328 12.2478 15.5528C12.2478 13.1428 10.1178 11.1729 7.49782 11.1729Z" fill="white" />
    </g>
</g>
</svg>