<svg width="48" height="48" viewBox="0 0 48 48" fill="none" xmlns="http://www.w3.org/2000/svg">
<g id="Iconly/Bulk/Message">
<g id="Group">
<path id="Fill 1" opacity="0.4" d="M44 31.88C44 37.46 39.52 41.98 33.94 42H33.92H14.1C8.54 42 4 37.5 4 31.92V31.9C4 31.9 4.012 23.048 4.028 18.596C4.03 17.76 4.99 17.292 5.644 17.812C10.396 21.582 18.894 28.456 19 28.546C20.42 29.684 22.22 30.326 24.06 30.326C25.9 30.326 27.7 29.684 29.12 28.524C29.226 28.454 37.534 21.786 42.358 17.954C43.014 17.432 43.978 17.9 43.98 18.734C44 23.152 44 31.88 44 31.88Z" fill="#16476D"/>
<path id="Fill 4" d="M42.9537 11.347C41.2217 8.08302 37.8137 5.99902 34.0617 5.99902H14.1017C10.3497 5.99902 6.94172 8.08302 5.20972 11.347C4.82172 12.077 5.00572 12.987 5.65172 13.503L20.5017 25.381C21.5417 26.221 22.8017 26.639 24.0617 26.639C24.0697 26.639 24.0757 26.639 24.0817 26.639C24.0877 26.639 24.0957 26.639 24.1017 26.639C25.3617 26.639 26.6217 26.221 27.6617 25.381L42.5117 13.503C43.1577 12.987 43.3417 12.077 42.9537 11.347Z" fill="#16476D"/>
</g>
</g>
</svg>
