<svg width="24" height="24" viewBox="0 0 24 24" fill="none" xmlns="http://www.w3.org/2000/svg">
<g id="vuesax/outline/brush">
<g id="brush">
<g id="Vector">
<mask id="path-1-inside-1_26067_7610" fill="white">
<path d="M14.9688 22.75H8.96875C3.53875 22.75 1.21875 20.43 1.21875 15V9C1.21875 3.57 3.53875 1.25 8.96875 1.25H10.9688C11.3787 1.25 11.7188 1.59 11.7188 2C11.7188 2.41 11.3787 2.75 10.9688 2.75H8.96875C4.35875 2.75 2.71875 4.39 2.71875 9V15C2.71875 19.61 4.35875 21.25 8.96875 21.25H14.9688C19.5788 21.25 21.2188 19.61 21.2188 15V13C21.2188 12.59 21.5588 12.25 21.9688 12.25C22.3787 12.25 22.7188 12.59 22.7188 13V15C22.7188 20.43 20.4088 22.75 14.9688 22.75Z"/>
</mask>
<path d="M14.9688 22.75H8.96875C3.53875 22.75 1.21875 20.43 1.21875 15V9C1.21875 3.57 3.53875 1.25 8.96875 1.25H10.9688C11.3787 1.25 11.7188 1.59 11.7188 2C11.7188 2.41 11.3787 2.75 10.9688 2.75H8.96875C4.35875 2.75 2.71875 4.39 2.71875 9V15C2.71875 19.61 4.35875 21.25 8.96875 21.25H14.9688C19.5788 21.25 21.2188 19.61 21.2188 15V13C21.2188 12.59 21.5588 12.25 21.9688 12.25C22.3787 12.25 22.7188 12.59 22.7188 13V15C22.7188 20.43 20.4088 22.75 14.9688 22.75Z" fill="#6C777A"/>
<path d="M14.9688 21.25H8.96875V24.25H14.9688V21.25ZM8.96875 21.25C6.42594 21.25 4.96852 20.701 4.11816 19.8506C3.2678 19.0002 2.71875 17.5428 2.71875 15H-0.28125C-0.28125 17.8872 0.329701 20.3048 1.99684 21.9719C3.66398 23.639 6.08156 24.25 8.96875 24.25V21.25ZM2.71875 15V9H-0.28125V15H2.71875ZM2.71875 9C2.71875 6.45719 3.2678 4.99977 4.11816 4.14941C4.96852 3.29905 6.42594 2.75 8.96875 2.75V-0.25C6.08156 -0.25 3.66398 0.360951 1.99684 2.02809C0.329701 3.69523 -0.28125 6.11281 -0.28125 9H2.71875ZM8.96875 2.75H10.9688V-0.25H8.96875V2.75ZM10.9688 2.75C10.5503 2.75 10.2188 2.41843 10.2188 2H13.2188C13.2188 0.761573 12.2072 -0.25 10.9688 -0.25V2.75ZM10.2188 2C10.2188 1.58157 10.5503 1.25 10.9688 1.25V4.25C12.2072 4.25 13.2188 3.23843 13.2188 2H10.2188ZM10.9688 1.25H8.96875V4.25H10.9688V1.25ZM8.96875 1.25C6.55792 1.25 4.47672 1.66321 3.05434 3.08559C1.63196 4.50797 1.21875 6.58917 1.21875 9H4.21875C4.21875 6.80083 4.62554 5.75703 5.17566 5.20691C5.72578 4.65679 6.76958 4.25 8.96875 4.25V1.25ZM1.21875 9V15H4.21875V9H1.21875ZM1.21875 15C1.21875 17.4108 1.63196 19.492 3.05434 20.9144C4.47672 22.3368 6.55792 22.75 8.96875 22.75V19.75C6.76958 19.75 5.72578 19.3432 5.17566 18.7931C4.62554 18.243 4.21875 17.1992 4.21875 15H1.21875ZM8.96875 22.75H14.9688V19.75H8.96875V22.75ZM14.9688 22.75C17.3796 22.75 19.4608 22.3368 20.8832 20.9144C22.3055 19.492 22.7188 17.4108 22.7188 15H19.7188C19.7188 17.1992 19.312 18.243 18.7618 18.7931C18.2117 19.3432 17.1679 19.75 14.9688 19.75V22.75ZM22.7188 15V13H19.7188V15H22.7188ZM22.7188 13C22.7188 13.4184 22.3872 13.75 21.9688 13.75V10.75C20.7303 10.75 19.7188 11.7616 19.7188 13H22.7188ZM21.9688 13.75C21.5503 13.75 21.2188 13.4184 21.2188 13H24.2188C24.2188 11.7616 23.2072 10.75 21.9688 10.75V13.75ZM21.2188 13V15H24.2188V13H21.2188ZM21.2188 15C21.2188 17.5443 20.6715 19.0013 19.8226 19.8511C18.9739 20.7006 17.5173 21.25 14.9688 21.25V24.25C17.8602 24.25 20.2786 23.6394 21.9449 21.9714C23.611 20.3037 24.2188 17.8857 24.2188 15H21.2188Z" fill="#6C777A" mask="url(#path-1-inside-1_26067_7610)"/>
</g>
<path id="Vector_2" d="M12.7805 14.4891L12.7796 14.4885C12.7795 14.3394 12.7664 14.1831 12.7415 14.0292C12.6502 13.359 12.3526 12.771 11.8915 12.2745C12.2352 12.638 12.4766 13.0427 12.6181 13.4671L12.9374 14.4251C12.893 14.447 12.8507 14.4659 12.8094 14.4824C12.8 14.4851 12.7912 14.4872 12.7837 14.4885C12.7825 14.4888 12.7815 14.4889 12.7805 14.4891ZM10.2486 11.3048C10.1425 11.2796 10.0343 11.2599 9.92429 11.2459L9.92263 11.2457C9.81859 11.2327 9.63715 11.2171 9.44925 11.2315C9.44908 11.2271 9.44956 11.2229 9.45042 11.2194C9.46934 11.1668 9.49057 11.1148 9.51378 11.0638L10.2486 11.3048ZM10.1321 10.2037L9.64998 10.8114C9.70659 10.7214 9.76836 10.6384 9.83263 10.5654L9.84445 10.5519L9.85562 10.5379L11.0848 8.99894C11.085 8.99877 11.0851 8.99861 11.0852 8.99844C11.4141 8.58819 11.7996 8.16172 12.2286 7.72952C11.8086 8.15416 11.4265 8.57738 11.0949 8.99022L11.0949 8.99021L11.0921 8.99374L10.1321 10.2037ZM21.9182 2.79174C21.9035 2.74746 21.8866 2.70567 21.8683 2.66653C21.8877 2.70754 21.9043 2.74934 21.9182 2.79174ZM21.8838 3.55376C21.9186 3.46989 21.9419 3.38893 21.9559 3.31128C21.9418 3.39348 21.9183 3.4755 21.8853 3.55629L21.8834 3.56097C21.5987 4.27151 21.2082 5.05091 20.742 5.85566C21.2009 5.06166 21.592 4.28122 21.8838 3.55376ZM14.9796 12.8643C16.2211 11.8671 17.5563 10.4125 18.7419 8.84886C17.5238 10.4586 16.1809 11.9135 14.9808 12.8745L14.9802 12.875L13.4278 14.1208C13.405 14.1369 13.3828 14.1524 13.3612 14.1673L13.7999 13.8141L14.9793 12.8646C14.9794 12.8645 14.9795 12.8644 14.9796 12.8643ZM9.4424 11.2323C9.44237 11.2323 9.44232 11.2323 9.44227 11.2323H9.4424Z" fill="#6C777A" stroke="#6C777A" stroke-width="1.5"/>
<path id="Vector_3" d="M6.03316 16.1413C5.99353 16.5686 6.11371 17.002 6.3756 17.3448C6.10984 17.0024 5.98642 16.5775 6.03316 16.1413ZM7.13352 12.2374C7.60915 11.7461 8.24318 11.409 8.96573 11.2935C8.30082 11.4125 7.63979 11.7276 7.13352 12.2374ZM11.8113 12.2099C11.4727 11.8713 11.0765 11.6062 10.6373 11.4378C11.0796 11.603 11.4767 11.8613 11.8165 12.2064L11.8165 12.2065L11.8206 12.2106C12.3528 12.7428 12.6598 13.3531 12.747 14.0354L12.7484 14.0463L12.7501 14.0572C12.7723 14.1978 12.781 14.3468 12.781 14.5002C12.781 15.3946 12.4377 16.2328 11.8106 16.8599C11.4729 17.1977 11.064 17.4533 10.5976 17.6156C11.0506 17.4556 11.4616 17.2002 11.8013 16.8606L11.8013 16.8606L11.8067 16.8551C12.421 16.2281 12.771 15.4009 12.771 14.5002C12.771 14.3507 12.7579 14.1939 12.7328 14.0395C12.6374 13.3383 12.316 12.7272 11.8178 12.2165L11.8178 12.2165L11.8113 12.2099ZM9.87083 17.7848C9.90313 17.7809 9.9353 17.7766 9.96735 17.7718C9.93611 17.7767 9.90468 17.7812 9.87305 17.7854L8.60286 17.9201L9.86047 17.786L9.86047 17.7861L9.87083 17.7848Z" fill="#6C777A" stroke="#6C777A" stroke-width="1.5"/>
<path id="Vector_4" d="M15.8212 11.9799C15.8212 9.89733 14.1271 8.18994 12.0312 8.18994C14.1181 8.18994 15.8212 9.88523 15.8212 11.9799Z" fill="#6C777A" stroke="#6C777A" stroke-width="1.5"/>
</g>
</g>
</svg>
