<svg xmlns="http://www.w3.org/2000/svg" width="24" height="24" viewBox="0 0 24 24" fill="none">
  <path d="M16.4386 6.43867C16.4379 4.03171 14.5058 2.06242 12.1129 2.00145C14.5044 2.06251 16.4381 4.03353 16.4386 6.43913M16.4386 6.43867L16.4386 6.43913M16.4386 6.43867C16.4386 6.43883 16.4386 6.43898 16.4386 6.43913M16.4386 6.43867L16.4386 6.43913M7.55859 6.44C7.55859 7.31009 7.80484 8.11951 8.23254 8.80221C7.80263 8.11852 7.55859 7.30857 7.55859 6.44ZM7.55859 6.44C7.55859 4.03728 9.48719 2.06789 11.8745 2.00171C9.48571 2.0678 7.55859 4.03571 7.55859 6.44ZM16.4378 6.51054C16.3936 8.79285 14.6681 10.6417 12.4438 10.8527C14.6734 10.635 16.3933 8.77793 16.4378 6.51054ZM12.1313 10.87H12.1312C12.1032 10.8669 12.0753 10.8648 12.0476 10.8637C12.0714 10.8645 12.0965 10.8659 12.1211 10.8678L12.1497 10.87H12.1496H12.1494H12.1492H12.1491H12.1489H12.1488H12.1486H12.1484H12.1483H12.1481H12.1479H12.1478H12.1476H12.1474H12.1473H12.1471H12.147H12.1468H12.1466H12.1465H12.1463H12.1462H12.146H12.1458H12.1457H12.1455H12.1453H12.1452H12.145H12.1449H12.1447H12.1445H12.1444H12.1442H12.1441H12.1439H12.1438H12.1436H12.1434H12.1433H12.1431H12.143H12.1428H12.1426H12.1425H12.1423H12.1422H12.142H12.1419H12.1417H12.1415H12.1414H12.1412H12.1411H12.1409H12.1408H12.1406H12.1404H12.1403H12.1401H12.14H12.1398H12.1397H12.1395H12.1394H12.1392H12.139H12.1389H12.1387H12.1386H12.1384H12.1383H12.1381H12.138H12.1378H12.1377H12.1375H12.1373H12.1372H12.137H12.1369H12.1367H12.1366H12.1364H12.1363H12.1361H12.136H12.1358H12.1357H12.1355H12.1354H12.1352H12.1351H12.1349H12.1348H12.1346H12.1344H12.1343H12.1341H12.134H12.1338H12.1337H12.1335H12.1334H12.1332H12.1331H12.1329H12.1328H12.1326H12.1325H12.1323H12.1322H12.132H12.1319H12.1317H12.1316H12.1314H12.1313ZM11.9886 10.8625C11.9893 10.8625 11.99 10.8625 11.9907 10.8625C11.9835 10.8625 11.9764 10.8626 11.9694 10.8627L11.9695 10.8627C11.9747 10.8626 11.9811 10.8625 11.9886 10.8625Z" fill="#12161C" stroke="#12161C" stroke-width="1.5"/>
  <path d="M12.1716 22.55C10.2116 22.55 8.24156 22.05 6.75156 21.05C5.36156 20.13 4.60156 18.87 4.60156 17.5C4.60156 16.13 5.36156 14.86 6.75156 13.93C9.75156 11.94 14.6116 11.94 17.5916 13.93C18.9716 14.85 19.7416 16.11 19.7416 17.48C19.7416 18.85 18.9816 20.12 17.5916 21.05C16.0916 22.05 14.1316 22.55 12.1716 22.55ZM7.58156 15.19C6.62156 15.83 6.10156 16.65 6.10156 17.51C6.10156 18.36 6.63156 19.18 7.58156 19.81C10.0716 21.48 14.2716 21.48 16.7616 19.81C17.7216 19.17 18.2416 18.35 18.2416 17.49C18.2416 16.64 17.7116 15.82 16.7616 15.19C14.2716 13.53 10.0716 13.53 7.58156 15.19Z" fill="#12161C"/>
</svg>