<svg xmlns="http://www.w3.org/2000/svg" width="24" height="24" viewBox="0 0 24 24" fill="none">
<path d="M12 19C9.79421 19 8 17.2058 8 15M12 19C14.2058 19 16 17.2058 16 15M12 19C14.2042 19 16 17.2042 16 15M12 19C9.79579 19 8 17.2042 8 15M8 15C8 12.7942 9.79421 11 12 11M8 15C8 12.7958 9.79579 11 12 11M16 15C16 12.7942 14.2058 11 12 11M16 15C16 12.7958 14.2042 11 12 11" fill="#6C777A" stroke="#6C777A" stroke-width="1.5"/>
<path d="M11.791 15.648C11.7765 15.6613 11.7618 15.6735 11.7467 15.6848L11.9565 15.492L13.5664 14.0121C13.5663 14.0122 13.5663 14.0122 13.5663 14.0123L11.7911 15.6479C11.7911 15.6479 11.791 15.648 11.791 15.648Z" fill="#6C777A" stroke="#6C777A" stroke-width="1.5"/>
<path d="M19.9916 9.23084C20.4888 9.78554 20.6847 10.4727 20.7366 11.1621C20.6784 10.4159 20.4598 9.7683 20.0013 9.25271C19.2428 8.3928 17.937 8.0516 16.3806 8.00551C18.2348 8.06038 19.3534 8.52135 19.9916 9.23084ZM7.99982 8C6.27621 8 4.82167 8.32371 4.00252 9.23807C3.44142 9.85776 3.23907 10.6799 3.24685 11.6415C3.23754 10.791 3.39047 9.91316 4.00586 9.23331L4.00586 9.23331L4.00729 9.23172C4.69725 8.4651 5.92388 8 7.99982 8Z" fill="#6C777A" stroke="#6C777A" stroke-width="1.5"/>
<path d="M16.5 8.62981C16.09 8.62981 15.75 8.28981 15.75 7.87981V6.49981C15.75 5.44981 15.3 4.42981 14.52 3.71981C13.73 2.99981 12.7 2.66981 11.63 2.76981C9.83 2.93981 8.25 4.77981 8.25 6.69981V7.66981C8.25 8.07981 7.91 8.41981 7.5 8.41981C7.09 8.41981 6.75 8.07981 6.75 7.66981V6.68981C6.75 3.99981 8.92 1.51981 11.49 1.26981C12.99 1.12981 14.43 1.59981 15.53 2.60981C16.62 3.59981 17.25 5.01981 17.25 6.49981V7.87981C17.25 8.28981 16.91 8.62981 16.5 8.62981Z" fill="#6C777A"/>
</svg>