<svg width="23" height="24" viewBox="0 0 23 24" fill="none" xmlns="http://www.w3.org/2000/svg">
<g id="vuesax/outline/profile-circle">
    <g id="profile-circle">
        <path id="Vector" d="M11.6159 13.466C11.5968 13.466 11.568 13.466 11.5489 13.466C11.5201 13.466 11.4818 13.466 11.453 13.466C9.2776 13.399 7.64844 11.7027 7.64844 9.61355C7.64844 7.48605 9.38302 5.75146 11.5105 5.75146C13.638 5.75146 15.3726 7.48605 15.3726 9.61355C15.363 11.7123 13.7243 13.399 11.6447 13.466C11.6255 13.466 11.6255 13.466 11.6159 13.466ZM11.5009 7.17938C10.1593 7.17938 9.07635 8.27188 9.07635 9.60397C9.07635 10.9169 10.1018 11.9806 11.4051 12.0285C11.4339 12.019 11.5297 12.019 11.6255 12.0285C12.9097 11.9615 13.9159 10.9073 13.9255 9.60397C13.9255 8.27188 12.8426 7.17938 11.5009 7.17938Z" fill="#16476D" />
        <path id="Vector_2" d="M11.5011 22.3024C8.92319 22.3024 6.46027 21.3441 4.55319 19.5999C4.38069 19.4466 4.30402 19.2165 4.32319 18.9961C4.44777 17.8557 5.15694 16.792 6.33569 16.0061C9.19152 14.1086 13.8203 14.1086 16.6665 16.0061C17.8453 16.8015 18.5544 17.8557 18.679 18.9961C18.7078 19.2261 18.6215 19.4466 18.449 19.5999C16.5419 21.3441 14.079 22.3024 11.5011 22.3024ZM5.82777 18.8045C7.4186 20.1366 9.42152 20.8649 11.5011 20.8649C13.5807 20.8649 15.5836 20.1366 17.1744 18.8045C17.0019 18.2199 16.5419 17.6545 15.8615 17.1945C13.504 15.6228 9.50777 15.6228 7.1311 17.1945C6.45069 17.6545 6.00027 18.2199 5.82777 18.8045Z" fill="#16476D" />
        <path id="Vector_3" d="M11.4974 22.3014C5.81448 22.3014 1.19531 17.6823 1.19531 11.9993C1.19531 6.31643 5.81448 1.69727 11.4974 1.69727C17.1803 1.69727 21.7995 6.31643 21.7995 11.9993C21.7995 17.6823 17.1803 22.3014 11.4974 22.3014ZM11.4974 3.13477C6.6099 3.13477 2.63281 7.11185 2.63281 11.9993C2.63281 16.8868 6.6099 20.8639 11.4974 20.8639C16.3849 20.8639 20.362 16.8868 20.362 11.9993C20.362 7.11185 16.3849 3.13477 11.4974 3.13477Z" fill="#16476D" />
    </g>
</g>
</svg>