
<svg width="24" height="24" viewBox="0 0 24 24" fill="none" xmlns="http://www.w3.org/2000/svg">
<g id="vuesax/outline/receipt-2">
    <g id="receipt-2">
        <path id="Vector" d="M11.5022 22.7498C10.7122 22.7498 9.9622 22.3398 9.4422 21.6398L8.42218 20.2998C8.21218 20.0198 7.9322 19.8598 7.6322 19.8398C7.3422 19.8198 7.03223 19.9598 6.78223 20.2098C5.92223 21.1298 5.08218 21.5698 4.29218 21.5498C3.75218 21.5298 3.28218 21.2898 2.92218 20.8498C2.88218 20.7998 2.84219 20.7298 2.81219 20.6598C2.42219 19.8198 2.24219 18.6798 2.24219 16.9698V7.04977C2.24219 5.33977 2.42219 4.20977 2.81219 3.35977C2.84219 3.29977 2.87218 3.23977 2.92218 3.18977C3.27218 2.73977 3.74223 2.49977 4.28223 2.46977C5.08223 2.43977 5.93222 2.89977 6.77222 3.79977C7.02222 4.06977 7.32219 4.19977 7.62219 4.17977C7.92219 4.15977 8.20217 3.99977 8.41217 3.71977L9.43219 2.36977C9.95219 1.66977 10.7022 1.25977 11.4922 1.25977C12.2822 1.25977 13.0322 1.66977 13.5522 2.36977L14.5622 3.70977C14.7722 3.99977 15.0622 4.15977 15.3722 4.17977C15.6622 4.19977 15.9722 4.05977 16.2222 3.79977C17.0422 2.91977 17.8522 2.46977 18.6322 2.46977C19.1922 2.46977 19.7122 2.71977 20.0722 3.18977C20.1122 3.23977 20.1522 3.29977 20.1822 3.36977C20.5722 4.20977 20.7522 5.34977 20.7522 7.05977V16.9798C20.7522 18.6898 20.5722 19.8198 20.1822 20.6698C20.1422 20.7598 20.0922 20.8398 20.0222 20.9098C19.7122 21.3098 19.2022 21.5598 18.6322 21.5598C17.8522 21.5598 17.0422 21.1098 16.2222 20.2298C15.9822 19.9698 15.6522 19.8298 15.3722 19.8498C15.0622 19.8698 14.7822 20.0298 14.5622 20.3198L13.5522 21.6598C13.0422 22.3398 12.2922 22.7498 11.5022 22.7498ZM7.58221 18.3298C7.62221 18.3298 7.67222 18.3298 7.71222 18.3298C8.45222 18.3698 9.14218 18.7598 9.61218 19.3898L10.6322 20.7398C11.1222 21.3998 11.8622 21.3998 12.3522 20.7498L13.3622 19.4098C13.8422 18.7698 14.5422 18.3898 15.2822 18.3498C16.0222 18.3098 16.7622 18.6198 17.3022 19.1998C18.0422 19.9898 18.4922 20.0498 18.6122 20.0498C18.6922 20.0498 18.7622 20.0298 18.8322 19.9698C19.1122 19.3398 19.2322 18.3898 19.2322 16.9698V7.04977C19.2322 5.64977 19.1022 4.69977 18.8322 4.06977C18.7522 3.97977 18.6722 3.96977 18.6122 3.96977C18.4922 3.96977 18.0422 4.02977 17.3022 4.81977C16.7622 5.39977 16.0222 5.70977 15.2822 5.66977C14.5322 5.62977 13.8322 5.23977 13.3522 4.60977L12.3422 3.26977C11.8522 2.60977 11.1122 2.60977 10.6222 3.26977L9.60217 4.62977C9.13217 5.25977 8.44221 5.63977 7.70221 5.67977C6.96221 5.71977 6.22219 5.40977 5.68219 4.83977C5.07219 4.17977 4.60222 3.95977 4.34222 3.96977C4.28222 3.96977 4.2122 3.98977 4.1322 4.06977C3.8622 4.69977 3.73218 5.64977 3.73218 7.04977V16.9698C3.73218 18.3798 3.8622 19.3298 4.1322 19.9598C4.2222 20.0398 4.28222 20.0498 4.34222 20.0598C4.59222 20.0698 5.06218 19.8498 5.67218 19.1998C6.20218 18.6298 6.89221 18.3298 7.58221 18.3298Z" fill="#16476D" />
        <path id="Vector_2" d="M16 11H8C7.59 11 7.25 10.66 7.25 10.25C7.25 9.84 7.59 9.5 8 9.5H16C16.41 9.5 16.75 9.84 16.75 10.25C16.75 10.66 16.41 11 16 11Z" fill="#16476D" />
        <path id="Vector_3" d="M14 14.5H8C7.59 14.5 7.25 14.16 7.25 13.75C7.25 13.34 7.59 13 8 13H14C14.41 13 14.75 13.34 14.75 13.75C14.75 14.16 14.41 14.5 14 14.5Z" fill="#16476D" />
    </g>
</g>
</svg>