<svg width="25" height="24" viewBox="0 0 25 24" fill="none" xmlns="http://www.w3.org/2000/svg">
<g id="vuesax/outline/search-normal">
    <g id="search-normal">
        <path id="Vector" d="M12.125 21.75C6.475 21.75 1.875 17.15 1.875 11.5C1.875 5.85 6.475 1.25 12.125 1.25C17.775 1.25 22.375 5.85 22.375 11.5C22.375 17.15 17.775 21.75 12.125 21.75ZM12.125 2.75C7.295 2.75 3.375 6.68 3.375 11.5C3.375 16.32 7.295 20.25 12.125 20.25C16.955 20.25 20.875 16.32 20.875 11.5C20.875 6.68 16.955 2.75 12.125 2.75Z" fill="#C1C2C3" />
        <path id="Vector_2" d="M22.6225 22.7499C22.4325 22.7499 22.2425 22.6799 22.0925 22.5299L20.0925 20.5299C19.8025 20.2399 19.8025 19.7599 20.0925 19.4699C20.3825 19.1799 20.8625 19.1799 21.1525 19.4699L23.1525 21.4699C23.4425 21.7599 23.4425 22.2399 23.1525 22.5299C23.0025 22.6799 22.8125 22.7499 22.6225 22.7499Z" fill="#C1C2C3" />
    </g>
</g>
</svg>