<svg width="24" height="25" viewBox="0 0 24 25" fill="none" xmlns="http://www.w3.org/2000/svg">
<g id="vuesax/outline/security-user">
    <g id="security-user">
        <path id="Vector" d="M11.9984 23.0932C10.9084 23.0932 9.82845 22.7732 8.97845 22.1432L4.67844 18.9332C3.53844 18.0832 2.64844 16.3132 2.64844 14.8932V7.4632C2.64844 5.9232 3.77845 4.2832 5.22845 3.7432L10.2184 1.8732C11.2084 1.5032 12.7685 1.5032 13.7585 1.8732L18.7585 3.7432C20.2085 4.2832 21.3384 5.9232 21.3384 7.4632V14.8932C21.3384 16.3132 20.4484 18.0832 19.3084 18.9332L15.0085 22.1432C14.1685 22.7732 13.0884 23.0932 11.9984 23.0932ZM10.7484 3.2732L5.75845 5.14319C4.89845 5.46319 4.14844 6.5432 4.14844 7.4632V14.8932C4.14844 15.8432 4.81845 17.1732 5.56845 17.7332L9.86844 20.9432C11.0184 21.8032 12.9684 21.8032 14.1184 20.9432L18.4185 17.7332C19.1785 17.1632 19.8384 15.8332 19.8384 14.8932V7.4632C19.8384 6.5532 19.0885 5.47319 18.2285 5.14319L13.2384 3.2732C12.5784 3.0232 11.4184 3.0232 10.7484 3.2732Z" fill="white" />
        <path id="Vector_2" d="M12.0019 12.0032C11.9819 12.0032 11.9619 12.0032 11.9319 12.0032C10.4819 11.9632 9.42188 10.8532 9.42188 9.50317C9.42188 8.12317 10.5519 6.99316 11.9319 6.99316C13.3119 6.99316 14.4419 8.12317 14.4419 9.50317C14.4319 10.8632 13.3719 11.9632 12.0219 12.0132C12.0119 12.0032 12.0119 12.0032 12.0019 12.0032ZM11.9319 8.49316C11.3719 8.49316 10.9219 8.94317 10.9219 9.50317C10.9219 10.0532 11.3519 10.4932 11.8919 10.5132C11.8919 10.5132 11.9419 10.5132 12.0019 10.5132C12.5319 10.4832 12.9419 10.0432 12.9419 9.50317C12.9519 8.94317 12.4919 8.49316 11.9319 8.49316Z" fill="white" />
        <path id="Vector_3" d="M11.9969 17.683C11.1369 17.683 10.2669 17.453 9.59689 17.003C8.92689 16.563 8.54688 15.913 8.54688 15.223C8.54688 14.533 8.92689 13.883 9.59689 13.433C10.9469 12.533 13.0569 12.543 14.3969 13.433C15.0669 13.873 15.4469 14.523 15.4469 15.213C15.4469 15.903 15.0669 16.553 14.3969 17.003C13.7269 17.453 12.8569 17.683 11.9969 17.683ZM10.4269 14.673C10.1769 14.833 10.0369 15.033 10.0469 15.213C10.0469 15.393 10.1869 15.593 10.4269 15.753C11.2669 16.313 12.7269 16.313 13.5669 15.753C13.8169 15.593 13.9569 15.393 13.9569 15.213C13.9569 15.033 13.8169 14.833 13.5769 14.673C12.7369 14.123 11.2669 14.123 10.4269 14.673Z" fill="white" />
    </g>
</g>
</svg>