<svg width="23" height="23" viewBox="0 0 23 23" fill="none" xmlns="http://www.w3.org/2000/svg">
<path d="M16.2891 20.3649H6.70573C3.20781 20.3649 1.19531 18.3524 1.19531 14.8545V8.14616C1.19531 4.64824 3.20781 2.63574 6.70573 2.63574H16.2891C19.787 2.63574 21.7995 4.64824 21.7995 8.14616V14.8545C21.7995 18.3524 19.787 20.3649 16.2891 20.3649ZM6.70573 4.07324C3.9649 4.07324 2.63281 5.40533 2.63281 8.14616V14.8545C2.63281 17.5953 3.9649 18.9274 6.70573 18.9274H16.2891C19.0299 18.9274 20.362 17.5953 20.362 14.8545V8.14616C20.362 5.40533 19.0299 4.07324 16.2891 4.07324H6.70573Z" fill="white"/>
<path d="M11.4974 12.3335C10.6924 12.3335 9.87781 12.0843 9.25489 11.5764L6.2553 9.18056C5.94864 8.9314 5.89114 8.48098 6.14031 8.17431C6.38947 7.86764 6.83989 7.81015 7.14656 8.05931L10.1461 10.4551C10.8745 11.0397 12.1107 11.0397 12.839 10.4551L15.8386 8.05931C16.1453 7.81015 16.6053 7.85806 16.8449 8.17431C17.0941 8.48098 17.0461 8.94098 16.7299 9.18056L13.7303 11.5764C13.117 12.0843 12.3024 12.3335 11.4974 12.3335Z" fill="white"/>
</svg>
