<svg width="25" height="25" viewBox="0 0 25 25" fill="none" xmlns="http://www.w3.org/2000/svg">
<g id="Snapchat">
    <path id="Combined-Shape" fill-rule="evenodd" clip-rule="evenodd" d="M12.1953 0.333008C5.5679 0.333008 0.195312 5.70559 0.195312 12.333C0.195312 18.9604 5.5679 24.333 12.1953 24.333C18.8227 24.333 24.1953 18.9604 24.1953 12.333C24.1953 5.70559 18.8227 0.333008 12.1953 0.333008ZM12.3178 6.33301H12.3184C12.6029 6.33301 13.1714 6.37286 13.7812 6.63965C14.1317 6.79312 14.4468 7.00073 14.7181 7.25687C15.0415 7.56252 15.3049 7.93952 15.5011 8.37786C15.7872 9.01787 15.7191 10.0959 15.6643 10.9622L15.662 10.9988L15.66 11.0316C15.6554 11.1054 15.6509 11.1768 15.6469 11.2464C15.684 11.2633 15.7415 11.281 15.8233 11.2852C15.9773 11.2779 16.1566 11.2268 16.3568 11.1334C16.4503 11.0899 16.5491 11.0808 16.6158 11.0808C16.7138 11.0808 16.81 11.0991 16.8944 11.1339C17.1443 11.223 17.3013 11.4051 17.3053 11.61C17.3069 11.6946 17.2813 11.824 17.1498 11.9591C17.0397 12.0724 16.8729 12.1721 16.6394 12.2641C16.5855 12.2853 16.5207 12.3058 16.4521 12.3274C16.2149 12.4024 15.8564 12.5159 15.7631 12.7353C15.7156 12.8468 15.7358 12.993 15.8233 13.1701C15.8257 13.1749 15.828 13.1797 15.8301 13.1846C15.862 13.2591 16.6329 15.0122 18.344 15.2934C18.4953 15.3182 18.6035 15.4528 18.5948 15.6051C18.5924 15.6501 18.5816 15.6942 18.5632 15.7368C18.5017 15.8787 18.3601 15.9997 18.1302 16.1061C17.8485 16.2365 17.4276 16.3459 16.8783 16.4319C16.8507 16.4848 16.8211 16.6194 16.8025 16.7043L16.8021 16.7058C16.7807 16.8036 16.759 16.9002 16.7287 17.003C16.6829 17.1593 16.5631 17.2485 16.4 17.2485H16.3925L16.3852 17.2484C16.3113 17.2484 16.2149 17.2367 16.0909 17.2123C15.9009 17.1754 15.6881 17.1412 15.4194 17.1412C15.2633 17.1412 15.1017 17.155 14.9391 17.1819C14.6256 17.2339 14.3556 17.424 14.0428 17.6442L14.0425 17.6444L14.0418 17.6451L14.0415 17.6453C13.5842 17.9677 13.066 18.333 12.2741 18.333C12.2398 18.333 12.2074 18.332 12.1812 18.3308C12.1598 18.3323 12.1382 18.333 12.1166 18.333C11.3247 18.333 10.8064 17.9677 10.3485 17.6449C10.0356 17.4244 9.76522 17.2339 9.45158 17.1819C9.28888 17.1549 9.12723 17.1412 8.97126 17.1412C8.68993 17.1412 8.46452 17.1852 8.29969 17.2175L8.29587 17.2182C8.18494 17.2397 8.08899 17.2582 8.00542 17.2582C7.78241 17.2582 7.6956 17.1222 7.66213 17.0084C7.63111 16.9034 7.60935 16.8045 7.58849 16.7083L7.58734 16.703C7.56745 16.6128 7.53923 16.4846 7.51203 16.433C6.96313 16.3472 6.54198 16.2375 6.26039 16.1071C6.02994 16.0002 5.8882 15.8791 5.82706 15.7365L5.82663 15.7358C5.80869 15.6933 5.79834 15.6495 5.79575 15.6055C5.78732 15.4528 5.8953 15.3185 6.04649 15.2938C6.43152 15.2305 6.799 15.0874 7.13861 14.8686C7.41686 14.6893 7.67868 14.4585 7.91639 14.1822C8.33472 13.6964 8.53866 13.2358 8.56052 13.1849C8.56125 13.1832 8.56199 13.1815 8.56276 13.1798C8.5642 13.1767 8.56569 13.1736 8.56719 13.1704C8.65466 12.9934 8.67506 12.8469 8.62766 12.7356C8.53422 12.5163 8.17617 12.4029 7.93915 12.3277L7.93838 12.3275L7.93749 12.3272C7.86952 12.3057 7.80536 12.2854 7.75126 12.2642C7.5442 12.1826 7.38378 12.0908 7.27458 11.9914C7.07605 11.8106 7.07522 11.6324 7.0924 11.5423C7.11848 11.406 7.21448 11.283 7.36305 11.196C7.48114 11.1268 7.61728 11.0889 7.74642 11.0889C7.82679 11.0889 7.89964 11.1039 7.96346 11.1335C8.18037 11.2349 8.37224 11.2863 8.53359 11.2863C8.63387 11.2863 8.7019 11.266 8.74386 11.2468C8.73881 11.1618 8.73333 11.0747 8.72802 10.9905L8.72628 10.9629L8.72608 10.9616L8.72606 10.9613C8.67153 10.0956 8.60368 9.01859 8.88969 8.37912C9.085 7.94233 9.34746 7.56629 9.66962 7.2613C9.93984 7.00533 10.2539 6.79768 10.6031 6.64412C11.2138 6.37534 11.7823 6.33532 12.0665 6.33532L12.2865 6.33314L12.3178 6.33301Z" fill="white" />
</g>
</svg>