<svg width="24" height="25" viewBox="0 0 24 25" fill="none" xmlns="http://www.w3.org/2000/svg">
<g id="vuesax/outline/stickynote">
    <g id="stickynote">
        <path id="Vector" d="M8 6.08203C7.59 6.08203 7.25 5.74203 7.25 5.33203V2.33203C7.25 1.92203 7.59 1.58203 8 1.58203C8.41 1.58203 8.75 1.92203 8.75 2.33203V5.33203C8.75 5.74203 8.41 6.08203 8 6.08203Z" fill="white" />
        <path id="Vector_2" d="M16 6.08203C15.59 6.08203 15.25 5.74203 15.25 5.33203V2.33203C15.25 1.92203 15.59 1.58203 16 1.58203C16.41 1.58203 16.75 1.92203 16.75 2.33203V5.33203C16.75 5.74203 16.41 6.08203 16 6.08203Z" fill="white" />
        <path id="Vector_3" d="M15 12.082H7C6.59 12.082 6.25 11.742 6.25 11.332C6.25 10.922 6.59 10.582 7 10.582H15C15.41 10.582 15.75 10.922 15.75 11.332C15.75 11.742 15.41 12.082 15 12.082Z" fill="white" />
        <path id="Vector_4" d="M12 16.083H7C6.59 16.083 6.25 15.743 6.25 15.333C6.25 14.923 6.59 14.583 7 14.583H12C12.41 14.583 12.75 14.923 12.75 15.333C12.75 15.743 12.41 16.083 12 16.083Z" fill="white" />
        <path id="Vector_5" d="M15 23.082H9C3.38 23.082 2.25 20.432 2.25 16.152V9.98203C2.25 5.24203 3.85 3.31203 7.96 3.08203H16C20.15 3.31203 21.75 5.24203 21.75 9.98203V16.332C21.75 16.742 21.41 17.082 21 17.082C20.59 17.082 20.25 16.742 20.25 16.332V9.98203C20.25 5.62203 18.8 4.74203 15.96 4.58203H8C5.2 4.74203 3.75 5.62203 3.75 9.98203V16.152C3.75 19.982 4.48 21.582 9 21.582H15C15.41 21.582 15.75 21.922 15.75 22.332C15.75 22.742 15.41 23.082 15 23.082Z" fill="white" />
        <path id="Vector_6" d="M15 23.083C14.9 23.083 14.81 23.063 14.71 23.023C14.43 22.903 14.25 22.633 14.25 22.333V19.333C14.25 16.913 15.58 15.583 18 15.583H21C21.3 15.583 21.58 15.763 21.69 16.043C21.81 16.323 21.74 16.643 21.53 16.863L15.53 22.863C15.39 23.003 15.2 23.083 15 23.083ZM18 17.083C16.42 17.083 15.75 17.753 15.75 19.333V20.523L19.19 17.083H18Z" fill="white" />
    </g>
</g>
</svg>