<svg width="24" height="25" viewBox="0 0 24 25" fill="none" xmlns="http://www.w3.org/2000/svg">
<g id="vuesax/outline/verify">
    <g id="verify">
        <path id="Vector" d="M10.7925 15.5033C10.5925 15.5033 10.4025 15.4233 10.2625 15.2833L7.8425 12.8633C7.5525 12.5733 7.5525 12.0933 7.8425 11.8033C8.1325 11.5133 8.6125 11.5133 8.9025 11.8033L10.7925 13.6933L15.0925 9.39328C15.3825 9.10328 15.8625 9.10328 16.1525 9.39328C16.4425 9.68328 16.4425 10.1633 16.1525 10.4533L11.3225 15.2833C11.1825 15.4233 10.9925 15.5033 10.7925 15.5033Z" fill="white" />
        <path id="Vector_2" d="M12.0028 23.083C11.3728 23.083 10.7428 22.873 10.2528 22.453L8.67281 21.093C8.51281 20.953 8.11281 20.813 7.90281 20.813H6.18281C4.70281 20.813 3.50281 19.613 3.50281 18.133V16.423C3.50281 16.213 3.36281 15.823 3.22281 15.663L1.87281 14.073C1.05281 13.103 1.05281 11.573 1.87281 10.603L3.22281 9.01301C3.36281 8.85301 3.50281 8.46301 3.50281 8.25301V6.53301C3.50281 5.05301 4.70281 3.85301 6.18281 3.85301H7.91281C8.12281 3.85301 8.52281 3.70301 8.68281 3.57301L10.2628 2.21301C11.2428 1.37301 12.7728 1.37301 13.7528 2.21301L15.3328 3.57301C15.4928 3.71301 15.8928 3.85301 16.1028 3.85301H17.8028C19.2828 3.85301 20.4828 5.05301 20.4828 6.53301V8.23301C20.4828 8.44301 20.6328 8.84301 20.7728 9.00301L22.1328 10.583C22.9728 11.563 22.9728 13.093 22.1328 14.073L20.7728 15.653C20.6328 15.813 20.4828 16.213 20.4828 16.423V18.123C20.4828 19.603 19.2828 20.803 17.8028 20.803H16.1028C15.8928 20.803 15.4928 20.953 15.3328 21.083L13.7528 22.443C13.2628 22.873 12.6328 23.083 12.0028 23.083ZM6.18281 5.35301C5.53281 5.35301 5.00281 5.88301 5.00281 6.53301V8.24301C5.00281 8.81301 4.73281 9.54301 4.36281 9.97301L3.01281 11.563C2.66281 11.973 2.66281 12.683 3.01281 13.093L4.36281 14.683C4.73281 15.123 5.00281 15.843 5.00281 16.413V18.123C5.00281 18.773 5.53281 19.303 6.18281 19.303H7.91281C8.49281 19.303 9.22281 19.573 9.66281 19.953L11.2428 21.313C11.6528 21.663 12.3728 21.663 12.7828 21.313L14.3628 19.953C14.8028 19.583 15.5328 19.303 16.1128 19.303H17.8128C18.4628 19.303 18.9928 18.773 18.9928 18.123V16.423C18.9928 15.843 19.2628 15.113 19.6428 14.673L21.0028 13.093C21.3528 12.683 21.3528 11.963 21.0028 11.553L19.6428 9.97301C19.2628 9.53301 18.9928 8.80301 18.9928 8.22301V6.53301C18.9928 5.88301 18.4628 5.35301 17.8128 5.35301H16.1128C15.5328 5.35301 14.8028 5.08301 14.3628 4.70301L12.7828 3.34301C12.3728 2.99301 11.6528 2.99301 11.2428 3.34301L9.66281 4.71301C9.22281 5.08301 8.48281 5.35301 7.91281 5.35301H6.18281Z" fill="white" />
    </g>
</g>
</svg>