<svg width="25" height="25" viewBox="0 0 25 25" fill="none" xmlns="http://www.w3.org/2000/svg">
<g id="Frame 1000009612">
<circle id="Ellipse 1489" cx="12.0938" cy="12.333" r="12" fill="white"/>
<g id="twitter new logo">
<path id="Rectangle 1" d="M8.24165 7.59687L15.0363 16.4738L15.154 16.6275L15.3528 16.6229L16.8464 16.5883L17.5552 16.5718L17.1288 16.0284L10.2473 7.25869L10.1405 7.12262L9.96302 7.11346L8.55616 7.04085L7.78561 7.00108L8.24165 7.59687ZM8.24165 7.59687L8.54239 7.39321L8.54239 7.39321L8.24165 7.59687Z" stroke="#16476D" stroke-width="0.726126"/>
<path id="Rectangle 4" d="M17.0124 4.92416L18.6659 5.00655L6.78901 19.9552L5.306 19.4987L17.0124 4.92416Z" fill="#16476D"/>
<rect id="Rectangle 5" x="6.22656" y="3.33301" width="13.8647" height="3.4126" fill="white"/>
<rect id="Rectangle 6" x="4.09375" y="16.8721" width="14.1865" height="4.59601" fill="white"/>
<path id="Rectangle 7" d="M11.3493 11.0495L12.2754 10.4275L13.8835 12.4743L13.0165 13.2375L11.3493 11.0495Z" fill="white"/>
</g>
</g>
</svg>
