<svg width="25" height="25" viewBox="0 0 25 25" fill="none" xmlns="http://www.w3.org/2000/svg">
<g id="Youtube">
    <path id="Combined-Shape" fill-rule="evenodd" clip-rule="evenodd" d="M12.3906 0.333008C5.76321 0.333008 0.390625 5.70559 0.390625 12.333C0.390625 18.9604 5.76321 24.333 12.3906 24.333C19.018 24.333 24.3906 18.9604 24.3906 12.333C24.3906 5.70559 19.018 0.333008 12.3906 0.333008ZM17.3914 8.20777C17.9422 8.3589 18.3759 8.80421 18.5231 9.36971C18.7906 10.3946 18.7906 12.5331 18.7906 12.5331C18.7906 12.5331 18.7906 14.6715 18.5231 15.6965C18.3759 16.262 17.9422 16.7073 17.3914 16.8585C16.3933 17.1331 12.3906 17.1331 12.3906 17.1331C12.3906 17.1331 8.38791 17.1331 7.38973 16.8585C6.83896 16.7073 6.40522 16.262 6.25802 15.6965C5.9906 14.6715 5.9906 12.5331 5.9906 12.5331C5.9906 12.5331 5.9906 10.3946 6.25802 9.36971C6.40522 8.80421 6.83896 8.3589 7.38973 8.20777C8.38791 7.93311 12.3906 7.93311 12.3906 7.93311C12.3906 7.93311 16.3933 7.93311 17.3914 8.20777Z" fill="white" />
    <path id="Fill-2" d="M11.1875 14.7324V10.7324L14.3875 12.7325L11.1875 14.7324Z" fill="white" />
</g>
</svg>